<svg xmlns="http://www.w3.org/2000/svg" viewBox="233.8 -309.2 442.4 508"><path d="M356.7-14.2h-98.3c-4.5 0-8.2-3.7-8.2-8.2v-98.3c0-58.7 47.8-106.5 106.5-106.5h155.7c4.5 0 8.2 3.7 8.2 8.2v98.3c0 4.5-3.7 8.2-8.2 8.2H373.1c-4.5 0-8.2 3.7-8.2 8.2v81.9c0 4.5-3.7 8.2-8.2 8.2zm-90.1-16.4h81.9v-73.7c0-13.6 11-24.6 24.6-24.6h131.1v-81.9H356.7c-49.7 0-90.1 40.4-90.1 90.1v90.1z"/><path d="M561.5-96.2h-49.2c-4.5 0-8.2-3.7-8.2-8.2v-131.1c0-4.5 3.7-8.2 8.2-8.2h49.2c4.5 0 8.2 3.7 8.2 8.2v131.1c0 4.6-3.7 8.2-8.2 8.2zm-41-16.4h32.8v-114.7h-32.8v114.7z"/><path d="M668-112.6H561.5c-4.5 0-8.2-3.7-8.2-8.2v-98.3c0-4.5 3.7-8.2 8.2-8.2H668c4.5 0 8.2 3.7 8.2 8.2v98.3c0 4.6-3.6 8.2-8.2 8.2zm-98.3-16.3h90.1v-81.9h-90.1v81.9zM553.3-227.3h-32.8c-4.5 0-8.2-3.7-8.2-8.2V-301c0-4.5 3.7-8.2 8.2-8.2h32.8c4.5 0 8.2 3.7 8.2 8.2v65.5c0 4.6-3.7 8.2-8.2 8.2zm-24.6-16.3h16.4v-49.2h-16.4v49.2z"/><path d="M630.9-243.6c-1.7 0-3.3-.2-5-.5l-74.1-14.6c-3.8-.8-6.6-4.1-6.6-8v-19.4c0-3.9 2.8-7.3 6.6-8l74.1-14.6c18-3.5 34 12.3 34 32.3-.1 18.1-13.1 32.8-29 32.8zm-69.4-29.9l67.5 13.3c7.6 1.5 14.5-6.5 14.5-16.2s-6.8-17.8-14.5-16.2l-67.5 13.3v5.8zM443-243.6c-16 0-29-14.7-29-32.8 0-19.9 16-35.8 34-32.3l74.1 14.6c3.8.8 6.6 4.1 6.6 8v19.3c0 3.9-2.8 7.3-6.6 8L448-244.2c-1.6.4-3.3.6-5 .6zm0-49.2c-6.8 0-12.6 7.5-12.6 16.4 0 9.7 6.9 17.7 14.5 16.2l67.5-13.3v-5.9l-67.5-13.3c-.6 0-1.3-.1-1.9-.1zM373.1 18.5H242c-4.5 0-8.2-3.7-8.2-8.2v-32.8c0-4.5 3.7-8.2 8.2-8.2h131.1c4.5 0 8.2 3.7 8.2 8.2v32.8c0 4.6-3.7 8.2-8.2 8.2zM250.2 2.2h114.7v-16.4H250.2V2.2zM299.3 198.8c-36.1 0-65.5-29.4-65.5-65.5 0-34 53.6-89.6 59.7-95.9 3.1-3.1 8.6-3.1 11.7 0 6.1 6.2 59.7 61.8 59.7 95.9 0 36.1-29.4 65.5-65.6 65.5zm0-143.8c-17.7 19.2-49.2 57.6-49.2 78.2 0 27.1 22.1 49.2 49.2 49.2s49.2-22.1 49.2-49.2c0-20.6-31.5-59-49.2-78.2z"/></svg>