<svg xmlns="http://www.w3.org/2000/svg" viewBox="0 0 15.6 15.6"><path d="M6.8.038c-.8 0-1.5.4-2 .9-.4.5-.6 1.1-.6 1.7 0 .9.4 1.6.9 2.3.2.4.5.8.7 1.2-.4 1.2-.9 2.6-1.4 3.7-.6.1-1.2.3-1.9.5-.6.2-1.2.5-1.7 1s-.8 1.2-.8 2c0 .5.2 1.1.6 1.5.4.4 1 .8 1.7.8 1.5 0 2.5-1 3.2-2.1.5-.7.8-1.4 1-2 1-.3 2.1-.6 3.1-.9.8.8 1.9 1.7 3.4 1.7 1.6 0 2.6-1.3 2.6-2.4 0-.6-.2-1.2-.7-1.7-.5-.5-1.2-.8-1.9-.8-.9 0-1.7.3-2.5.6-.7-.7-1.4-1.7-2-2.5.1-.3.2-.6.4-.9.3-.7.5-1.3.5-2.1 0-.6-.2-1.1-.6-1.7-.4-.4-1.1-.8-2-.8zm0 1.9c.3 0 .4.1.5.2.1.1.2.4.2.4 0 .1-.1.7-.4 1.3 0 .1-.1.2-.1.3-.1-.1-.1-.2-.2-.4-.4-.6-.6-1.2-.6-1.2 0-.1.1-.3.2-.5 0 0 .2-.1.4-.1zm.6 5.4c.4.6.8 1 1.2 1.5-.7.2-1.3.3-2 .6.3-.7.6-1.4.8-2.1zm5.6 2.1c.3 0 .4.1.5.2s.1.2.1.4c0 .1 0 .5-.6.5-.3 0-.8-.3-1.3-.6.5-.4 1-.5 1.3-.5zm-8.8 2.4l-.3.6c-.5.8-1.1 1.2-1.6 1.2-.2 0-.2 0-.2-.1 0 0-.1-.1-.1-.2 0-.3.1-.5.3-.6.2-.2.5-.4 1-.5.2-.2.5-.3.9-.4z"/></svg>