<svg xmlns="http://www.w3.org/2000/svg" viewBox="0 0 223.3 162.9"><path d="M221.1 57.7l-75-56.5c-2-1.5-4.7-1.5-6.7 0L127 10.4l-12.3-9.3c-2-1.5-4.8-1.5-6.7 0l-12 9.1-12-9.1c-2-1.5-4.7-1.5-6.7 0l-75 56.5C.8 58.7 0 60.4 0 62.1v95.2c0 3.1 2.5 5.6 5.6 5.6h212.1c3.1 0 5.6-2.5 5.6-5.6V62.1c0-1.7-.8-3.4-2.2-4.4zm-9 94h-20.2V62.1c0-1.8-.8-3.4-2.2-4.5l-53.3-40.2 6.4-4.8 69.4 52.3v86.8zm-51 0V62.1c0-1.8-.8-3.4-2.2-4.5l-53.7-40.5 6.1-4.6 69.4 52.3v86.8h-19.6zm-71.4 0H71.4v-40.6h18.3v40.6zm11.2 0v-46.2c0-3.1-2.5-5.6-5.6-5.6H65.8c-3.1 0-5.6 2.5-5.6 5.6v46.2h-49V64.9l69.4-52.3L150 64.9v86.8h-49.1zm0 0"/></svg>