<svg xmlns="http://www.w3.org/2000/svg" viewBox="5.2 -48.3 77.8 90.1"><path d="M44 41.8c-.5 0-.9-.1-1.3-.2-10.9-4.1-19.6-9.5-26.4-16.4-5.2-5.3-8.5-10.8-9.9-16.8C5.7 5.5 5.3 2.7 5.3 0c-.1-7.5-.1-15.2-.1-22.6v-8c0-2.6 1-3.7 3.6-3.9 8.7-.5 17.4-3.3 26.4-8.6 1.8-1 3.6-2.2 5.3-3.4l.9-.6c2.4-1.6 3.1-1.6 5.4 0 6.3 4.4 12.5 7.6 18.9 9.8 4.6 1.6 9.3 2.5 13.9 2.7 2.2.1 3.4 1.3 3.4 3.6v17c0 .2 0 .4-.1.6v4.3c0 3.7.1 7.4-.1 11.2-.2 6.3-2.4 12.2-6.7 18-4.8 6.5-11.1 11.7-19.3 16.2-2.8 1.5-5.8 2.8-8.7 4.1-.8.3-1.6.7-2.4 1.1-.5.2-1.1.3-1.7.3zM8.3-31.3v8.7c0 7.4 0 15 .1 22.5 0 2.5.4 5.1 1 7.7 1.3 5.5 4.3 10.5 9.1 15.4 6.5 6.6 14.8 11.8 25.3 15.7.1 0 .5 0 .7-.1.8-.4 1.6-.7 2.4-1.1 2.8-1.2 5.8-2.5 8.5-4 7.8-4.2 13.8-9.2 18.2-15.2C77.5 13 79.5 7.7 79.7 2c.1-3.7.1-7.4.1-11v-4.9c0-.2 0-.4.1-.6v-3.9-12.5-.4c-.1 0-.2 0-.4-.1-4.9-.3-9.9-1.2-14.8-2.9C58-36.5 51.5-39.9 45-44.5c-.3-.2-.7-.5-.9-.6-.2.1-.7.4-1 .6l-.8.6c-1.8 1.2-3.6 2.4-5.4 3.5-9.4 5.5-18.5 8.5-27.8 9-.5 0-.7 0-.8.1z"/><path d="M44 25.4c-9.5 0-17.2-7.7-17.2-17.2S34.5-8.9 44-8.9 61.2-1.2 61.2 8.2 53.5 25.4 44 25.4zm0-31.3C36.2-5.9 29.9.4 29.9 8.2S36.2 22.3 44 22.3 58.1 16 58.1 8.2 51.8-5.9 44-5.9z"/><path d="M55.7-.9c-.8 0-1.5-.7-1.5-1.5v-14.2c0-5.6-4.6-10.2-10.2-10.2s-10.2 4.6-10.2 10.2v14.2c0 .8-.7 1.5-1.5 1.5s-1.5-.7-1.5-1.5v-14.2c0-7.3 5.9-13.3 13.3-13.3 7.3 0 13.3 5.9 13.3 13.3v14.2c-.1.9-.8 1.5-1.7 1.5zM43 10.6v3.6c0 .7.3 1.2 1 1.2s1-.5 1-1.2v-3.6c2-.5 2.4-1.7 2.4-3.2C47.4 5.5 46 4 44.1 4s-3.4 1.5-3.4 3.4c0 1.5.3 2.7 2.3 3.2z"/></svg>