<svg xmlns="http://www.w3.org/2000/svg" viewBox="0 0 75.9 45.7"><g fill-rule="evenodd" clip-rule="evenodd"><path fill="#009DDD" d="M37.9 39.8c4.6-4.2 7.5-10.2 7.5-17 0-6.7-2.9-12.8-7.5-17-4-3.6-9.3-5.8-15.2-5.8C10.2 0 0 10.2 0 22.9c0 12.6 10.2 22.9 22.7 22.9 5.9-.1 11.2-2.3 15.2-6z"/><path fill="#ED1C2E" d="M53.2 0C47.3 0 42 2.2 37.9 5.9c-.8.7-1.6 1.6-2.3 2.4h4.6c.6.8 1.2 1.6 1.7 2.4h-8c-.5.8-.9 1.6-1.3 2.4h10.7c.4.8.7 1.6 1 2.4H31.6c-.3.8-.5 1.6-.7 2.4h13.9c.3 1.6.5 3.2.5 4.8 0 2.5-.4 5-1.2 7.3H31.6c.3.8.6 1.6 1 2.4h10.7c-.4.8-.8 1.6-1.3 2.4h-8c.5.8 1.1 1.7 1.7 2.4h4.6c-.7.9-1.5 1.7-2.3 2.4 4 3.7 9.4 5.9 15.2 5.9 12.5 0 22.7-10.2 22.7-22.9C75.9 10.2 65.7 0 53.2 0z"/><path fill="#ED1C2E" d="M72.9 35.6c0-.4.3-.7.7-.7.4 0 .7.3.7.7 0 .4-.3.7-.7.7-.4.1-.7-.3-.7-.7zm.7.6c.3 0 .6-.3.6-.6s-.2-.6-.6-.6c-.3 0-.6.3-.6.6s.3.6.6.6zm-.1-.3h-.2v-.6h.5c.1 0 .1.1.1.2s0 .1-.1.2l.1.3h-.2l-.1-.3h-.1v.2-.4h.2v-.1-.1h-.2V35.9z"/><path fill="#FFF" d="M68.1 27.8c0-.4.3-.7.7-.7.4 0 .7.3.7.7 0 .4-.3.7-.7.7-.4.1-.7-.3-.7-.7zm.7.6c.3 0 .6-.3.6-.6s-.2-.6-.6-.6c-.3 0-.6.3-.6.6s.3.6.6.6zm-.1-.2h-.2v-.6h.5c.1 0 .1.1.1.2s0 .1-.1.2l.1.3h-.2l-.1-.3h-.1v.2-.4h.2v-.1-.1h-.2V28.2zM19.9 28.6H17l1.7-8.9-3.8 8.9h-2.6l-.5-8.9-1.7 8.9H7.6L9.7 17h4.5l.2 7.1 3.1-7.1h4.6l-2.2 11.6zM51.4 28.5c-.8.2-1.4.3-2 .3-1.4 0-2.2-.7-2.2-2.1 0-.3 0-.5.1-.8l.2-.9.1-.7 1.3-7.2h2.8l-.4 2.2h1.4l-.4 2.3h-1.4l-.7 3.9v.4c0 .5.3.7 1 .7.3 0 .6 0 .8-.1l-.6 2zM59.7 19.2c-.2-.1-.3-.1-.3-.1-.1 0-.2-.1-.2-.1h-.3c-.9 0-1.6.4-2.5 1.5l.2-1.4H54l-1.7 9.4h2.8c1-5.8 1.4-6.8 2.8-6.8h.4l.3.1 1.1-2.6zM40.2 22.1c0 1.2.7 2 2.2 2.6 1.2.5 1.3.6 1.3 1 0 .6-.5.9-1.6.9-.9 0-1.6-.1-2.6-.4l-.4 2.2h.1l.5.1c.2 0 .4.1.7.1.7.1 1.2.1 1.6.1 3 0 4.4-1 4.4-3.1 0-1.3-.6-2.1-2-2.6-1.2-.5-1.3-.6-1.3-1 0-.5.5-.8 1.4-.8.6 0 1.3.1 2.1.1l.4-2.2c-.7-.1-1.9-.2-2.5-.2-3.2 0-4.3 1.5-4.3 3.2zM29.1 28.6h-2.3l.1-1c-.7.8-1.7 1.1-3 1.1-1.5 0-2.6-1-2.6-2.6 0-2.3 1.8-3.6 5-3.6.3 0 .7 0 1.2.1.1-.3.1-.4.1-.6 0-.6-.5-.9-1.8-.9-.8 0-1.7.1-2.3.3l-.4.1-.3.1.4-2.1c1.4-.4 2.3-.5 3.4-.5 2.4 0 3.7 1 3.7 2.8 0 .5 0 .8-.2 1.9l-.6 3.3-.1.6-.3.4v.6zM27 24.4h-.6c-1.6 0-2.4.5-2.4 1.4 0 .6.4 1 1 1 1.1-.1 1.9-1 2-2.4zM38.3 28.4c-1 .3-1.9.4-2.9.4-3.2 0-4.8-1.5-4.8-4.2 0-3.2 2.1-5.6 4.9-5.6 2.3 0 3.8 1.3 3.8 3.4 0 .7-.1 1.4-.3 2.3h-5.6v.3c0 1.1.8 1.7 2.5 1.7 1 0 1.9-.2 2.9-.6l-.5 2.3zm-1.5-5.6v-.5c0-.8-.5-1.2-1.3-1.2-.9 0-1.5.6-1.8 1.7h3.1zM68.5 24.3c-.4 3.1-2.6 4.5-5.5 4.5-3.2 0-4.5-2-4.5-4.3 0-3.3 2.2-5.6 5.6-5.6 2.9 0 4.5 1.9 4.5 4.3 0 .5 0 .5-.1 1.1zm-2.9-1.2c0-1-.4-1.9-1.6-1.9-1.4 0-2.3 1.7-2.3 3.2 0 1.3.6 2.1 1.6 2.1.6 0 1.9-.8 2.2-2.3 0-.3.1-.7.1-1.1z"/></g></svg>