<svg xmlns="http://www.w3.org/2000/svg" viewBox="0 0 76.4 59.2"><path d="M13.9 59.1v-3.9c0-1.5-.9-2.5-2.5-2.5-.8 0-1.6.2-2.2 1.1-.4-.7-1.1-1.1-2.1-1.1-.7 0-1.3.2-1.8.9v-.8H4v6.3h1.4v-3.5c0-1.1.6-1.7 1.5-1.7s1.4.6 1.4 1.7v3.5h1.4v-3.5c0-1.1.6-1.7 1.5-1.7s1.4.6 1.4 1.7v3.5h1.3zm20.4-6.3H32v-1.9h-1.4v1.9h-1.3V54h1.3v2.9c0 1.5.6 2.3 2.2 2.3.6 0 1.3-.2 1.7-.5l-.4-1.2c-.4.2-.9.4-1.2.4-.7 0-.9-.4-.9-1v-2.8h2.2v-1.3zm11.6-.2c-.8 0-1.3.4-1.7.9v-.8h-1.4V59h1.4v-3.5c0-1 .4-1.6 1.3-1.6.3 0 .6 0 .9.2l.4-1.3c-.2-.1-.6-.2-.9-.2zm-17.6.7c-.7-.4-1.6-.7-2.6-.7-1.6 0-2.6.8-2.6 2 0 1 .8 1.7 2.2 1.8l.6.1c.7.1 1.1.3 1.1.7 0 .5-.5.8-1.4.8-.9 0-1.6-.3-2.1-.7l-.6 1.1c.7.6 1.7.8 2.7.8 1.8 0 2.9-.9 2.9-2s-.8-1.7-2.2-1.9l-.6-.1c-.6-.1-1.1-.2-1.1-.6 0-.5.4-.7 1.2-.7.8 0 1.6.3 2 .5l.5-1.1zm36.5-.7c-.8 0-1.3.4-1.7.9v-.8h-1.4V59h1.4v-3.5c0-1 .4-1.6 1.3-1.6.3 0 .6 0 .9.2l.4-1.3c-.2-.1-.6-.2-.9-.2zm-17.5 3.3c0 1.9 1.3 3.3 3.3 3.3.9 0 1.6-.2 2.3-.7l-.7-1.1c-.5.4-1 .6-1.6.6-1.1 0-1.9-.8-1.9-2s.8-2 1.9-2c.6 0 1.1.2 1.6.6l.7-1.1c-.7-.5-1.3-.7-2.3-.7-2-.2-3.3 1.2-3.3 3.1zm12.7 0v-3.1h-1.4v.8c-.4-.6-1.1-.9-2-.9-1.8 0-3.1 1.4-3.1 3.3s1.4 3.3 3.1 3.3c.9 0 1.5-.4 2-.9v.8H60v-3.3zm-5 0c0-1.1.7-2 1.9-2 1.1 0 1.9.9 1.9 2s-.8 2-1.9 2c-1.2 0-1.9-.9-1.9-2zm-16.5-3.3c-1.8 0-3.1 1.3-3.1 3.3 0 2 1.3 3.3 3.2 3.3.9 0 1.8-.2 2.6-.9l-.7-1c-.5.5-1.2.7-1.8.7-.9 0-1.7-.4-1.9-1.5h4.7V56c0-2-1.2-3.4-3-3.4zm0 1.3c.9 0 1.4.6 1.6 1.5h-3.3c.2-.9.7-1.5 1.7-1.5zm34.2 2v-5.7h-1.4v3.3c-.4-.6-1.1-.9-2-.9-1.8 0-3.1 1.4-3.1 3.3s1.4 3.3 3.1 3.3c.9 0 1.5-.4 2-.9v.8h1.4v-3.2zm-5.1 0c0-1.1.7-2 1.9-2 1.1 0 1.9.9 1.9 2s-.8 2-1.9 2c-1.2 0-1.9-.9-1.9-2zm-46 0v-3.1h-1.4v.8c-.4-.6-1.1-.9-2-.9-1.8 0-3.1 1.4-3.1 3.3s1.4 3.3 3.1 3.3c.9 0 1.5-.4 2-.9v.8h1.4v-3.3zm-5.1 0c0-1.1.7-2 1.9-2 1.1 0 1.9.9 1.9 2s-.8 2-1.9 2c-1.2 0-1.9-.9-1.9-2z"/><path fill="#F16022" d="M27.9 5h20.7v37.1H27.9z"/><path fill="#E91D25" d="M29.2 23.6c0-7.5 3.5-14.2 9-18.6-4-3.2-9.1-5-14.6-5C10.6 0 0 10.6 0 23.6c0 13 10.6 23.6 23.6 23.6 5.5 0 10.6-1.9 14.6-5-5.5-4.4-9-11.1-9-18.6z"/><path fill="#F69E1E" d="M76.4 23.6c0 13-10.6 23.6-23.6 23.6-5.5 0-10.6-1.9-14.6-5 5.5-4.3 9-11 9-18.6S43.7 9.4 38.2 5c4-3.2 9.1-5 14.6-5 13 0 23.6 10.6 23.6 23.6z"/></svg>