<svg xmlns="http://www.w3.org/2000/svg" viewBox="0 0 17 17"><title>odnolassniki</title><path d="M7.7 12c-1.3-.1-2.5-.5-3.5-1.3-.1-.1-.3-.2-.4-.3-.5-.4-.5-.9-.2-1.4.3-.4.8-.6 1.4-.3.1.1.2.1.3.2 1.9 1.3 4.5 1.3 6.4.1.2-.1.4-.3.6-.3.4-.1.9.1 1.1.4.3.5.3.9-.1 1.2-.5.5-1.2.9-1.9 1.2-.7.2-1.4.4-2.1.5l.2.2c1 1 2 2 2.9 3 .3.3.4.8.2 1.1-.2.4-.6.7-1.1.7-.3 0-.5-.2-.7-.4l-2.2-2.2c-.2-.2-.3-.2-.5 0-.7.8-1.5 1.5-2.3 2.3-.3.3-.8.4-1.1.2-.4-.2-.7-.6-.7-1.1 0-.3.2-.5.4-.7l2.9-2.9c.2-.1.3-.1.4-.2z"/><path d="M8.5 8.6c-2.4 0-4.3-2-4.3-4.3S6.1 0 8.5 0s4.3 2 4.3 4.3c0 2.4-2 4.3-4.3 4.3zm2.1-4.3c0-1.2-.9-2.1-2.1-2.1s-2.1 1-2.1 2.1c0 1.2.9 2.1 2.1 2.1 1.2 0 2.1-.9 2.1-2.1z"/></svg>