<svg xmlns="http://www.w3.org/2000/svg" viewBox="0 0 177 156.7" fill="red"><path d="M114.9 156.7c-14.7 0-28.1-.5-28.4-.5-18.3-.7-62.6-3-77-10.5-11.5-5.9-10.6-25.4-7.3-97.8l.5-11.1 1.1-1.1c2.4-2.4 5.4-1.7 11-.5 7.8 1.7 24.1 5.1 55.3 5.1 1.3 0 6.4-.2 12.9-.4 67.2-2.4 73.5-1.6 76 0 5.6 3.7 5.1 13.5 4.6 23.1-.2 3.4-.3 6.5-.1 8.3.3 2.2-1.3 4.2-3.5 4.5-2.2.3-4.2-1.3-4.5-3.5-.3-2.5-.1-5.8.1-9.7.2-4.1.7-13.6-.8-15.8-7.2-1.2-53.7.4-71.5 1.1-7.2.1-11.9.3-13.3.3-32 0-48.8-3.6-56.9-5.3-.9-.2-1.8-.4-2.7-.5l-.3 5.9c-2.7 59.6-3.9 86.8 3 90.4 8.9 4.6 35.8 8.1 72.2 9.5 33.6 1.3 59 .2 62.9-1.3 2.5-2 4.4-15.9 4.1-29.5-.1-2.2 1.7-4 3.9-4.1 2.2-.1 4 1.7 4.1 3.9.3 9.3 0 31.6-7.9 36.6-3.8 2.3-21.5 2.9-37.5 2.9"/><path d="M129.8 121.3c-33.5 0-35.1-2.1-36.8-4.1-.8-1-1.1-2.2-1-3.5-3.8-8.4-8.7-28.2-.7-40.7.8-1.2 2-1.8 3.3-1.9.1 0 .2 0 .3-.1 7.8-.8 25.5-1.5 43-1.6 32.1-.2 34.6 1.4 35.8 2.2 1.8 1.2 3.9 2.6 3 22.7-.4 8.5-1.4 19.2-2.3 22.6-.9 3.2-3.2 3.6-4.1 3.6-17 .6-30.2.8-40.5.8M100 112c4.4.9 19.5 1.9 67.2.7 1.2-7.4 2.5-28.4 1.5-34.3-9.3-1.5-54.9-1-71.5.5-4.4 9.4-1 25.4 2.5 32.2.2.3.3.6.3.9M7.8 40.9c-.5 0-1.1-.1-1.6-.3-2-.9-3-3.2-2.1-5.2 3.4-7.9 12.3-13.1 26.7-15.5 7.7-1.2 26.7-2.5 41.7-2.3 2.2 0 4 1.8 4 4s-1.8 4-4 4h-.1c-15.4-.2-33.8 1.2-40.3 2.2-7.9 1.3-17.8 4.1-20.6 10.7-.6 1.5-2.1 2.4-3.7 2.4M149.4 44.4c-.7 0-1.4-.2-2.1-.6-1.8-1.1-2.4-3.4-1.5-5.3.7-2 .4-9.3-.5-11.7-3.4-1-16.1-1.3-20.4-1.4-2.2 0-4-1.9-3.9-4.1 0-2.2 1.8-3.9 4-3.9h.1c17.7.4 23.2 1.1 25.7 3.3l.1.1c4.1 4 3.9 18.3 1.9 21.6-.8 1.4-2.1 2-3.4 2"/><path d="M134 46c-1.5 0-2.9-.8-3.6-2.2-3.2-6.6-12.7-25.9-16.5-33.7-8.2 3.1-32.2 12.5-84.7 33.7-2 .8-4.4-.2-5.2-2.2-.8-2 .2-4.4 2.2-5.2 67.4-27.3 88-35 88.2-35.1l3.4-1.3 1.6 3.3s14 28.7 18.1 37c1 2 .1 4.4-1.8 5.4-.5.2-1.1.3-1.7.3M117.1 107c-4.3 0-8.7-2.5-11.1-6.3-2-3.2-2.2-6.7-.6-9.8.1-.3.2-.5.3-.8 3.2-6.1 9.9-8 16.3-4.8 5.9 3 8.5 9.1 6 14.1-3 6.2-7.8 7.4-10.3 7.5-.2 0-.4.1-.6.1m-4.2-13.3c-.1.3-.2.6-.4.8-.3.5-.2 1.2.3 1.9.9 1.5 2.8 2.6 4.5 2.5 1.4-.1 2.6-1.1 3.6-3 .5-1-.9-2.7-2.5-3.5-1.4-.7-4-1.4-5.5 1.3"/></svg>