<svg xmlns="http://www.w3.org/2000/svg" viewBox="0 0 17 17"><circle fill="#65C5B7" cx="8.5" cy="8.5" r="8.5"/><path fill="none" stroke="#FFF" stroke-width="1.512" stroke-miterlimit="10" d="M5.5 8l6 3.8M5.5 8l6 3.8M11.6 8l-6 3.8"/><path fill="#FFF" stroke="#4A666C" stroke-width="1.512" stroke-miterlimit="10" d="M4.9 12.7V5c0-.4.3-.7.7-.7.4 0 .7.3.7.7v7.7H4.9zM10.8 12.7V5c0-.4.3-.7.7-.7.4 0 .7.3.7.7v7.7h-1.4z"/><path fill="#FFF" stroke="#4A666C" stroke-width="1.512" stroke-miterlimit="10" d="M3.6 5.8h9.8v2.6H3.6z"/><path fill="none" stroke="#4A666C" stroke-width="1.512" stroke-linecap="round" stroke-miterlimit="10" d="M7 5.5l-3.2 3M9.1 5.5L6 8.5M10.7 5.9L8.1 8.5M13.3 5.5l-3 2.8"/></svg>