<svg xmlns="http://www.w3.org/2000/svg" viewBox="0 0 30 30"><path d="M27 30H3c-1.7 0-3-1.3-3-3V5c0-1.7 1.1-3 2.5-3H4v2H2.5c-.2 0-.5.4-.5 1v22c0 .6.4 1 1 1h24c.6 0 1-.4 1-1V5c0-.6-.3-1-.5-1H26V2h1.5C28.9 2 30 3.3 30 5v22c0 1.7-1.3 3-3 3"/><path d="M7 6c-.6 0-1-.4-1-1V1c0-.6.4-1 1-1s1 .4 1 1v4c0 .6-.4 1-1 1M23 6c-.6 0-1-.4-1-1V1c0-.6.4-1 1-1s1 .4 1 1v4c0 .6-.4 1-1 1M10 2h10v2H10zM2 8h26v2H2zM24 12h2v2h-2zM20 12h2v2h-2zM16 12h2v2h-2zM12 12h2v2h-2zM8 12h2v2H8zM24 16h2v2h-2zM20 16h2v2h-2zM16 16h2v2h-2zM12 16h2v2h-2zM8 16h2v2H8zM4 16h2v2H4zM24 20h2v2h-2zM20 20h2v2h-2zM16 20h2v2h-2zM12 20h2v2h-2zM8 20h2v2H8zM4 20h2v2H4zM20 24h2v2h-2zM16 24h2v2h-2zM12 24h2v2h-2zM8 24h2v2H8zM4 24h2v2H4z"/></svg>