<svg xmlns="http://www.w3.org/2000/svg" viewBox="-16 -23.2 48 48"><path d="M32 .8c0-13.2-10.8-24-24-24s-24 10.8-24 24c0 7.4 3.4 14 8.7 18.4v.1c4.2 3.4 9.5 5.5 15.3 5.5s11.1-2.1 15.3-5.5C28.6 14.8 32 8.2 32 .8zm-46 0c0-12.1 9.9-22 22-22s22 9.9 22 22C30 7.2 27.2 13 22.9 17 19.3 12.5 13.8 9.8 8 9.8S-3.3 12.5-6.9 17C-11.2 13-14 7.2-14 .8zm8.7 17.5c3.2-4.1 8.1-6.5 13.3-6.5s10.1 2.4 13.3 6.5C17.6 21.1 13 22.8 8 22.8s-9.6-1.7-13.3-4.5z"/><path d="M8-15.2c-.6 0-1-.4-1-1v-2c0-.6.4-1 1-1s1 .4 1 1v2c0 .6-.4 1-1 1zM-.6-13c-.3 0-.7-.2-.9-.5l-1-1.7c-.3-.5-.1-1.1.4-1.4.5-.3 1.1-.1 1.4.4l1 1.7c.3.5.1 1.1-.4 1.4-.2 0-.3.1-.5.1zM-7-6.9c-.2 0-.3 0-.5-.1l-1.7-1c-.5-.3-.6-.9-.4-1.4s.9-.6 1.4-.4l1.7 1c.5.3.6.9.4 1.4-.2.4-.5.5-.9.5zM-9 1.8h-2c-.6 0-1-.4-1-1s.4-1 1-1h2c.6 0 1 .4 1 1s-.4 1-1 1zM27 1.8h-2c-.6 0-1-.4-1-1s.4-1 1-1h2c.6 0 1 .4 1 1s-.4 1-1 1zM22.6-6.8c-.3 0-.7-.2-.9-.5-.3-.5-.1-1.1.4-1.4l1.7-1c.5-.3 1.1-.1 1.4.4.3.5.1 1.1-.4 1.4l-1.7 1c-.1 0-.3.1-.5.1zM16.3-13.1c-.2 0-.3 0-.5-.1-.5-.3-.6-.9-.4-1.4l1-1.7c.3-.5.9-.6 1.4-.4.5.3.6.9.4 1.4l-1 1.7c-.3.3-.6.5-.9.5zM19.3-5.8c-.3-.5-.9-.6-1.4-.4l-7.5 4.3c-.6-.5-1.4-.9-2.3-.9-2 0-3.6 1.6-3.6 3.6s1.6 3.6 3.6 3.6 3.6-1.6 3.6-3.6c0-.4-.1-.7-.2-1l7.4-4.3c.5-.2.7-.8.4-1.3zM8.1 2.5c-.9 0-1.6-.7-1.6-1.6 0-.9.7-1.6 1.6-1.6C9-.7 9.7 0 9.7.9c0 .9-.7 1.6-1.6 1.6z"/></svg>