<svg xmlns="http://www.w3.org/2000/svg" viewBox="0 0 34.1 32"><path d="M27.1 31.938c.6-.1 1-.6.9-1.2v-.1l-1.7-10.2 7.5-7.3c.4-.4.4-1.1 0-1.5-.2-.2-.4-.3-.6-.3l-10.4-1.6-4.7-9.3c-.3-.5-.9-.7-1.4-.5-.2.1-.4.3-.5.5l-4.7 9.3-10.4 1.6c-.6.1-1 .6-.9 1.2 0 .2.1.4.3.6l7.5 7.3-1.7 10.2c-.1.6.3 1.1.9 1.2.2 0 .5 0 .7-.1l9.4-4.8 9.4 4.8c-.1.2.1.2.4.2zm-1.6-2.9l-8-4.1c-.3-.2-.7-.2-1 0l-8 4.1 1.5-8.7c.1-.3-.1-.7-.3-.9l-6.4-6.2 8.9-1.3c.3-.1.6-.3.8-.6l4-7.9 4 7.9c.2.3.5.5.8.6l8.9 1.3-6.4 6.2c-.3.2-.4.6-.3.9l1.5 8.7z"/></svg>