<svg xmlns="http://www.w3.org/2000/svg" viewBox="0 0 171 58" width="171" height="58"><path fill="#CC2D30" d="M44.5 39.3c0 3.1-2.5 5.5-5.5 5.5h-2.1c-4.4 0-7.1 4.1-7.8 6.5-.1.2-.3.2-.3 0-.7-2.5-3.3-6.5-7.8-6.5h-2c-3.1 0-5.5-2.5-5.5-5.5V13.9c0-.1.1-.2.2-.2h30.7c.1 0 .2.1.2.2v25.4z"/><path fill="#FFF" d="M75.7 29c3.3.7 4.6 2.4 4.4 6.9 0 7.4-3.5 8.9-10.3 8.8H55.6c-1.1 0-2.1-1-2.1-2.1V15.8c0-1.1 1-2.1 2.1-2.1h14.2c6.1-.1 9.9 1.3 9.9 8.1.1 3.5-.7 6.2-4 7.2zm94.8-27.8h-8.4v9.6h2.6V3.4h3.3v7.3h2.6V1.2zm-18 0l3.3 7c-.1.2-.2.4-.3.5-.2.1-.4.1-.8.1h-.5c-.1 0-.3 0-.4-.1v2.1c.2 0 .4.1.6.1h.7c.7 0 1.3-.2 1.8-.5.4-.4.9-.9 1.3-1.7l3.6-7.4h-2.9l-1.7 4.1h-.1l-1.7-4.1h-2.9zm-4.1 9.6h-2.6V1.2h6.5v2.2h-4v7.4zm-8.2-9.6v2h-4.4v1.7h2.4c1 0 1.7.2 2.2.7.5.5.7 1.2.7 2.3 0 1.1-.3 1.8-.8 2.3-.5.4-1.2.7-2.2.7h-4.9V1.2h7zm-4.4 5.7v1.9h1.8c.4 0 .6-.1.8-.2.2-.1.2-.4.2-.7 0-.4-.1-.6-.2-.8-.2-.1-.4-.2-.8-.2h-1.8zm-4-5.7h-8.4v9.6h2.6V3.4h3.3v7.3h2.6V1.2zm-11.9 6v.3c0 .6-.1.9-.4 1-.3.1-.7.2-1.2.2s-.9-.1-1.1-.2c-.2-.1-.4-.3-.4-.6-.1-.3-.1-.7-.1-1.2V5.2c0-.5 0-.8.1-1.1.1-.3.2-.4.4-.6.2-.1.6-.2 1.1-.2.4 0 .8 0 1.1.1.3.1.4.4.5.8v.4h2.6v-.3c0-.8-.2-1.4-.4-1.9-.3-.4-.7-.8-1.3-1-.6-.2-1.3-.3-2.1-.3-.9 0-1.7.1-2.4.2-.7.2-1.2.5-1.6 1.1-.3.5-.5 1.3-.5 2.3v2.5c0 1.2.2 2 .6 2.5.4.5.9.8 1.6 1 .7.1 1.4.2 2.3.2.6 0 1.1 0 1.6-.1s1-.3 1.4-.6c.4-.4.7-.8.8-1.2.1-.5.1-.9.1-1.5v-.3h-2.7zM6.8 2.6C6.8 1.4 7.8.4 9 .4s2.2 1 2.2 2.2-1 2.2-2.2 2.2-2.2-1-2.2-2.2zm6.6 0c0-1.2 1-2.2 2.2-2.2s2.2 1 2.2 2.2-1 2.2-2.2 2.2-2.2-1-2.2-2.2zm6.7 0c0-1.2 1-2.2 2.2-2.2s2.2 1 2.2 2.2-1 2.2-2.2 2.2-2.2-1-2.2-2.2zm6.7 0c0-1.2 1-2.2 2.2-2.2 1.2 0 2.2 1 2.2 2.2s-1 2.2-2.2 2.2c-1.2 0-2.2-1-2.2-2.2zm6.6 0c0-1.2 1-2.2 2.2-2.2s2.2 1 2.2 2.2-1 2.2-2.2 2.2-2.2-1-2.2-2.2zm6.7 0c0-1.2 1-2.2 2.2-2.2 1.2 0 2.2 1 2.2 2.2s-1 2.2-2.2 2.2c-1.2 0-2.2-1-2.2-2.2zm6.7 0c0-1.2 1-2.2 2.2-2.2 1.2 0 2.2 1 2.2 2.2s-1 2.2-2.2 2.2c-1.3 0-2.2-1-2.2-2.2zm6.6 0c0-1.2 1-2.2 2.2-2.2s2.2 1 2.2 2.2-1 2.2-2.2 2.2-2.2-1-2.2-2.2zM.1 9.3c0-1.2 1-2.2 2.2-2.2s2.2 1 2.2 2.2-1 2.2-2.2 2.2-2.2-1-2.2-2.2zm6.7 0c0-1.2 1-2.2 2.2-2.2s2.2 1 2.2 2.2-1 2.2-2.2 2.2-2.2-1-2.2-2.2zm6.6 0c0-1.2 1-2.2 2.2-2.2s2.2 1 2.2 2.2-1 2.2-2.2 2.2-2.2-1-2.2-2.2zm6.7 0c0-1.2 1-2.2 2.2-2.2s2.2 1 2.2 2.2-1 2.2-2.2 2.2-2.2-1-2.2-2.2zm6.7 0c0-1.2 1-2.2 2.2-2.2 1.2 0 2.2 1 2.2 2.2s-1 2.2-2.2 2.2c-1.2 0-2.2-1-2.2-2.2zm6.6 0c0-1.2 1-2.2 2.2-2.2s2.2 1 2.2 2.2-1 2.2-2.2 2.2-2.2-1-2.2-2.2zm6.7 0c0-1.2 1-2.2 2.2-2.2 1.2 0 2.2 1 2.2 2.2s-1 2.2-2.2 2.2c-1.2 0-2.2-1-2.2-2.2zm6.7 0c0-1.2 1-2.2 2.2-2.2 1.2 0 2.2 1 2.2 2.2s-1 2.2-2.2 2.2c-1.3 0-2.2-1-2.2-2.2zm6.6 0c0-1.2 1-2.2 2.2-2.2s2.2 1 2.2 2.2-1 2.2-2.2 2.2-2.2-1-2.2-2.2zM.1 15.9c0-1.2 1-2.2 2.2-2.2s2.2 1 2.2 2.2-1 2.2-2.2 2.2-2.2-.9-2.2-2.2zm0 6.7c0-1.2 1-2.2 2.2-2.2s2.2 1 2.2 2.2c0 1.2-1 2.2-2.2 2.2s-2.2-1-2.2-2.2zm6.7 0c0-1.2 1-2.2 2.2-2.2s2.2 1 2.2 2.2c0 1.2-1 2.2-2.2 2.2s-2.2-1-2.2-2.2zm40 0c0-1.2 1-2.2 2.2-2.2 1.2 0 2.2 1 2.2 2.2 0 1.2-1 2.2-2.2 2.2-1.3 0-2.2-1-2.2-2.2zM.1 29.3c0-1.2 1-2.2 2.2-2.2s2.2 1 2.2 2.2c0 1.2-1 2.2-2.2 2.2s-2.2-1-2.2-2.2zm6.7 0C6.8 28 7.8 27 9 27s2.2 1 2.2 2.2c0 1.2-1 2.2-2.2 2.2s-2.2-.9-2.2-2.1zm40 0c0-1.2 1-2.2 2.2-2.2 1.2 0 2.2 1 2.2 2.2 0 1.2-1 2.2-2.2 2.2-1.3 0-2.2-1-2.2-2.2zM.1 35.9c0-1.2 1-2.2 2.2-2.2s2.2 1 2.2 2.2-1 2.2-2.2 2.2-2.2-.9-2.2-2.2zm6.7 0c0-1.2 1-2.2 2.2-2.2s2.2 1 2.2 2.2-1 2.2-2.2 2.2-2.2-.9-2.2-2.2zm40 0c0-1.2 1-2.2 2.2-2.2 1.2 0 2.2 1 2.2 2.2s-1 2.2-2.2 2.2c-1.3 0-2.2-.9-2.2-2.2zM.1 42.6c0-1.2 1-2.2 2.2-2.2s2.2 1 2.2 2.2-1 2.2-2.2 2.2-2.2-1-2.2-2.2zm6.7 0c0-1.2 1-2.2 2.2-2.2s2.2 1 2.2 2.2-1 2.2-2.2 2.2-2.2-1-2.2-2.2zm40 0c0-1.2 1-2.2 2.2-2.2 1.2 0 2.2 1 2.2 2.2s-1 2.2-2.2 2.2c-1.3 0-2.2-1-2.2-2.2zM.1 49.2c0-1.2 1-2.2 2.2-2.2s2.2 1 2.2 2.2-1 2.2-2.2 2.2-2.2-.9-2.2-2.2zm6.7 0C6.8 48 7.8 47 9 47s2.2 1 2.2 2.2-1 2.2-2.2 2.2-2.2-.9-2.2-2.2zm6.6 0c0-1.2 1-2.2 2.2-2.2s2.2 1 2.2 2.2-1 2.2-2.2 2.2-2.2-.9-2.2-2.2zm6.7 0c0-1.2 1-2.2 2.2-2.2s2.2 1 2.2 2.2-1 2.2-2.2 2.2-2.2-.9-2.2-2.2zm13.3 0c0-1.2 1-2.2 2.2-2.2s2.2 1 2.2 2.2-1 2.2-2.2 2.2-2.2-.9-2.2-2.2zm6.7 0c0-1.2 1-2.2 2.2-2.2 1.2 0 2.2 1 2.2 2.2s-1 2.2-2.2 2.2c-1.2.1-2.2-.9-2.2-2.2zm6.7 0c0-1.2 1-2.2 2.2-2.2 1.2 0 2.2 1 2.2 2.2s-1 2.2-2.2 2.2c-1.3.1-2.2-.9-2.2-2.2zm6.6 0c0-1.2 1-2.2 2.2-2.2s2.2 1 2.2 2.2-1 2.2-2.2 2.2-2.2-.9-2.2-2.2zM.1 55.9c0-1.2 1-2.2 2.2-2.2s2.2 1 2.2 2.2c0 1.2-1 2.2-2.2 2.2s-2.2-1-2.2-2.2zm6.7 0c0-1.2 1-2.2 2.2-2.2s2.2 1 2.2 2.2c0 1.2-1 2.2-2.2 2.2s-2.2-1-2.2-2.2zm6.6 0c0-1.2 1-2.2 2.2-2.2s2.2 1 2.2 2.2c0 1.2-1 2.2-2.2 2.2s-2.2-1-2.2-2.2zm6.7 0c0-1.2 1-2.2 2.2-2.2s2.2 1 2.2 2.2c0 1.2-1 2.2-2.2 2.2s-2.2-1-2.2-2.2zm6.7 0c0-1.2 1-2.2 2.2-2.2 1.2 0 2.2 1 2.2 2.2 0 1.2-1 2.2-2.2 2.2-1.2 0-2.2-1-2.2-2.2zm6.6 0c0-1.2 1-2.2 2.2-2.2s2.2 1 2.2 2.2c0 1.2-1 2.2-2.2 2.2s-2.2-1-2.2-2.2zm6.7 0c0-1.2 1-2.2 2.2-2.2 1.2 0 2.2 1 2.2 2.2 0 1.2-1 2.2-2.2 2.2-1.2 0-2.2-1-2.2-2.2zm6.7 0c0-1.2 1-2.2 2.2-2.2 1.2 0 2.2 1 2.2 2.2 0 1.2-1 2.2-2.2 2.2-1.3 0-2.2-1-2.2-2.2zm6.6 0c0-1.2 1-2.2 2.2-2.2s2.2 1 2.2 2.2c0 1.2-1 2.2-2.2 2.2s-2.2-1-2.2-2.2zm-46.6-40c0-1.2 1-2.2 2.2-2.2s2.2 1 2.2 2.2-1 2.2-2.2 2.2-2.2-.9-2.2-2.2zm40 0c0-1.2 1-2.2 2.2-2.2 1.2 0 2.2 1 2.2 2.2s-1 2.2-2.2 2.2c-1.3.1-2.2-.9-2.2-2.2zM.1 2.6C.1 1.4 1.1.4 2.3.4s2.2 1 2.2 2.2-1 2.2-2.2 2.2S.1 3.8.1 2.6zm164.1 42.1c-1.1 0-2.1-1-2.1-2.1v-21h-9.7v21c0 1.1-1 2.1-2.1 2.1h-4.7c-1.1 0-2.1-1-2.1-2.1V15.8c0-1.1 1-2.1 2.1-2.1h23.2c1.1 0 2.1 1 2.1 2.1v26.8c0 1.1-1 2.1-2.1 2.1h-4.6zm-39.3-19.6l7.1-10.4c.2-.3 1.4-.9 1.7-.9h5.6c5.1 0 .8 4.5-6.9 15.2l9.3 12.4c1.3 1.7.4 3.3-1.7 3.3h-5.8c-.3 0-1.5-.6-1.7-.9l-7.8-10.9h-1.8v9.7c0 1.1-1 2.1-2.1 2.1h-4.7c-1.1 0-2.1-1-2.1-2.1V15.8c0-1.1 1-2.1 2.1-2.1h4.7c1.1 0 2.1 1 2.1 2.1V25h2zm-23.6-9.3c0-1.1 1-2.1 2.1-2.1h4.7c1.1 0 2.1 1 2.1 2.1v21h.4c1.1 0 2.1 1 2.1 2.1v10.5c0 1.1-1 2.1-2.1 2.1h-4.3c-1.1 0-2.1-1-2.1-2.1v-4.8H84.8c-1.1 0-2.1-1-2.1-2.1V15.8c0-1.1 1-2.1 2.1-2.1h4.7c1.1 0 2.1 1 2.1 2.1v21h9.7v-21zm-33.5 10c2.1.1 3.1-.1 3.1-2.5.1-1.7-.4-2.2-2.1-2.2h-6.3v4.6h5.3zm.3 11.5c2.1 0 3.3-.3 3.3-2.7 0-2.3-1-2.5-3.1-2.4h-5.8v5.1h5.6z"/><path fill="#FFF" d="M61.4 51.2v-1h.9c.3 0 .6 0 .8-.1.2-.1.3-.2.4-.4.1-.2.1-.5.1-.8 0-.5-.1-.8-.3-1.1-.2-.2-.5-.3-1-.3h-1.9v3.8h1zm73.3 0v-1h.9c.3 0 .6 0 .8-.1.2-.1.3-.2.4-.4.1-.2.1-.5.1-.8 0-.5-.1-.8-.3-1.1-.2-.2-.5-.3-1-.3h-1.9v3.8h1zm0-1.8v-1.1h.7c.2 0 .3 0 .4.1.1.1.1.2.1.4s0 .4-.1.4c-.1.1-.2.1-.4.1h-.7zm-3.5-1.1h1v-.9h-3v.9h1v2.9h1v-2.9zm-3.2-.8h-1v1.4h-1.3v-1.4h-1v3.8h1v-1.5h1.3v1.5h1v-3.8zm-6.5.8h1.7v-.8h-2.7v3.8h2.8v-.8h-1.7v-.7h1.6V49h-1.6v-.7zm-5 2.1v-2.9h-1v3.8h2.7v.9h.9v-1.7h-.3v-2.9h-1v2.9h-1.3zm-18-2.9v3.8h1.4l1.1-2.5v2.5h.9v-3.8h-1.3L99.5 50v-2.5h-1zm1.2-1.1h-.4c0 .2 0 .4.1.5.1.1.2.2.3.2.1 0 .3.1.5.1s.3 0 .5-.1c.1 0 .2-.1.3-.2.1-.1.1-.3.1-.5h-.4c0 .1 0 .2-.1.3s-.2.1-.3.1c-.2 0-.3 0-.4-.1s-.2-.2-.2-.3zm-6.4 1.1v1.4h.9c.4 0 .7.1.9.3.2.2.3.5.3.9s-.1.7-.3.9c-.2.2-.5.3-.9.3h-1.9v-3.8h1zm0 2.2v.8h.7c.1 0 .2 0 .3-.1.1-.1.1-.1.1-.3 0-.2 0-.3-.1-.3-.1-.1-.2-.1-.3-.1h-.7zm3.6-2.2h-1v3.8h1v-3.8zm-6.2 0h-1v1.4h-1.3v-1.4h-1v3.8h1v-1.5h1.3v1.5h1v-3.8zm-5.9.8h1v-.9h-3v.9h1v2.9h1v-2.9zm-4.8 0h1.7v-.8H79v3.8h2.8v-.8H80v-.7h1.6V49H80v-.7zm-3.6-.8v1.4c-.1 0-.2 0-.3.1s-.2 0-.3 0c-.2 0-.4 0-.5-.1-.1-.1-.1-.2-.1-.4v-.9h-1v1.1c0 .4.1.8.3 1 .2.2.6.3 1.1.3h.4c.2 0 .3 0 .4-.1v1.5h1v-3.8h-1zm-4.5 2.3v.1c0 .2-.1.3-.2.4-.1.1-.3.1-.5.1s-.3 0-.4-.1c-.1-.1-.1-.1-.2-.3v-1-.4c0-.1.1-.2.2-.2s.2-.1.4-.1.3 0 .4.1c.1 0 .2.1.2.3v.2h1v-.2c0-.3-.1-.6-.2-.7-.1-.2-.3-.3-.5-.4-.2-.1-.5-.1-.8-.1-.4 0-.7 0-1 .1-.3.1-.5.2-.6.4-.1.2-.2.5-.2.9v1c0 .4.1.8.2 1 .2.2.4.3.6.4.3 0 .6.1.9.1h.6c.2 0 .4-.1.6-.2.2-.1.3-.3.3-.5s.1-.4 0-.6V50h-.8zm-4.8.8l.2.6h1l-1.1-3.8h-1.5l-1.1 3.8h1.1l.2-.6h1.2zm-.2-.7H66l.5-1.6.4 1.6zm-5.5-.5v-1.1h.7c.2 0 .3 0 .4.1.1.1.1.2.1.4s0 .4-.1.4c-.1.1-.2.1-.4.1h-.7z"/></svg>