<svg xmlns="http://www.w3.org/2000/svg" xmlns:xlink="http://www.w3.org/1999/xlink"><defs><path id="a" d="M0 0h40v40H0z"/></defs><symbol id="icon-arrow-back" viewBox="7.6 0 9.4 16.9"><path d="M7.9 9.1l7.7 7.6c.3.3.9.3 1.2 0 .3-.3.3-.9 0-1.2l-7.1-7 7-7.1c.3-.3.3-.9 0-1.2-.3-.3-.9-.3-1.2 0L7.9 7.9c-.4.3-.4.9 0 1.2z"/></symbol><symbol id="icon-arrow-next" viewBox="7.7 0 9.3 16.9"><path d="M16.7 7.9L9.1.3c-.3-.4-.9-.4-1.2 0-.3.3-.3.9 0 1.2l7 7-7 7c-.3.3-.3.9 0 1.2.3.3.9.3 1.2 0l7.6-7.6c.4-.3.4-.9 0-1.2z"/></symbol><symbol id="icon-arrow" viewBox="0 0 24.2 24.2"><path d="M12.1 17.6c-.3 0-.5-.1-.7-.3l-7.1-7.1c-.3-.3-.3-.9.1-1.3s1-.4 1.3 0l6.4 6.4 6.4-6.4c.4-.4 1-.4 1.3 0 .4.4.4 1 0 1.3l-7.1 7.1c-.1.2-.4.3-.6.3z"/></symbol><symbol id="icon-calc" viewBox="0 0 40 40"><clipPath id="b"><use xlink:href="#a" overflow="visible"/></clipPath><path clip-path="url(#b)" d="M18 1c0-.6-.4-1-1-1H1C.5 0 0 .4 0 1v16c0 .6.4 1 1 1h16c.6 0 1-.4 1-1V1zM2 2h14v14H2V2zM40 1c0-.6-.4-1-1-1H23c-.6 0-1 .4-1 1v16c0 .6.4 1 1 1h16c.6 0 1-.4 1-1V1zM24 2h14v14H24V2zM18 23c0-.6-.4-1-1-1H1c-.6 0-1 .4-1 1v16c0 .6.4 1 1 1h16c.6 0 1-.4 1-1V23zM2 24h14v14H2V24zM40 23c0-.6-.4-1-1-1H23c-.6 0-1 .4-1 1v16c0 .6.4 1 1 1h16c.6 0 1-.4 1-1V23zm-16 1h14v14H24V24z"/><path clip-path="url(#b)" d="M8 8H4v2h4v4h2v-4h4V8h-4V4H8zM9 29.6l-2.8-2.9-1.4 1.5L7.6 31l-2.8 2.8 1.4 1.4L9 32.4l2.8 2.8 1.4-1.4-2.8-2.8 2.8-2.8-1.4-1.5zM26 8h10v2H26zM26 30h10v2H26zM31 26c.6 0 1 .4 1 1s-.4 1-1 1-1-.4-1-1 .4-1 1-1M31 34c.6 0 1 .4 1 1s-.4 1-1 1-1-.4-1-1 .4-1 1-1"/></symbol><symbol id="icon-close" viewBox="0 0 612 612"><path d="M612 36.004L576.521.603 306 270.608 35.478.603 0 36.004l270.522 270.007L0 575.997l35.478 35.4L306 341.411l270.521 269.986 35.479-35.4-270.541-269.986z"/></symbol><symbol id="icon-crane" viewBox="233.8 -309.2 442.4 508"><path d="M356.7-14.2h-98.3c-4.5 0-8.2-3.7-8.2-8.2v-98.3c0-58.7 47.8-106.5 106.5-106.5h155.7c4.5 0 8.2 3.7 8.2 8.2v98.3c0 4.5-3.7 8.2-8.2 8.2H373.1c-4.5 0-8.2 3.7-8.2 8.2v81.9c0 4.5-3.7 8.2-8.2 8.2zm-90.1-16.4h81.9v-73.7c0-13.6 11-24.6 24.6-24.6h131.1v-81.9H356.7c-49.7 0-90.1 40.4-90.1 90.1v90.1z"/><path d="M561.5-96.2h-49.2c-4.5 0-8.2-3.7-8.2-8.2v-131.1c0-4.5 3.7-8.2 8.2-8.2h49.2c4.5 0 8.2 3.7 8.2 8.2v131.1c0 4.6-3.7 8.2-8.2 8.2zm-41-16.4h32.8v-114.7h-32.8v114.7z"/><path d="M668-112.6H561.5c-4.5 0-8.2-3.7-8.2-8.2v-98.3c0-4.5 3.7-8.2 8.2-8.2H668c4.5 0 8.2 3.7 8.2 8.2v98.3c0 4.6-3.6 8.2-8.2 8.2zm-98.3-16.3h90.1v-81.9h-90.1v81.9zM553.3-227.3h-32.8c-4.5 0-8.2-3.7-8.2-8.2V-301c0-4.5 3.7-8.2 8.2-8.2h32.8c4.5 0 8.2 3.7 8.2 8.2v65.5c0 4.6-3.7 8.2-8.2 8.2zm-24.6-16.3h16.4v-49.2h-16.4v49.2z"/><path d="M630.9-243.6c-1.7 0-3.3-.2-5-.5l-74.1-14.6c-3.8-.8-6.6-4.1-6.6-8v-19.4c0-3.9 2.8-7.3 6.6-8l74.1-14.6c18-3.5 34 12.3 34 32.3-.1 18.1-13.1 32.8-29 32.8zm-69.4-29.9l67.5 13.3c7.6 1.5 14.5-6.5 14.5-16.2s-6.8-17.8-14.5-16.2l-67.5 13.3v5.8zM443-243.6c-16 0-29-14.7-29-32.8 0-19.9 16-35.8 34-32.3l74.1 14.6c3.8.8 6.6 4.1 6.6 8v19.3c0 3.9-2.8 7.3-6.6 8L448-244.2c-1.6.4-3.3.6-5 .6zm0-49.2c-6.8 0-12.6 7.5-12.6 16.4 0 9.7 6.9 17.7 14.5 16.2l67.5-13.3v-5.9l-67.5-13.3c-.6 0-1.3-.1-1.9-.1zM373.1 18.5H242c-4.5 0-8.2-3.7-8.2-8.2v-32.8c0-4.5 3.7-8.2 8.2-8.2h131.1c4.5 0 8.2 3.7 8.2 8.2v32.8c0 4.6-3.7 8.2-8.2 8.2zM250.2 2.2h114.7v-16.4H250.2V2.2zM299.3 198.8c-36.1 0-65.5-29.4-65.5-65.5 0-34 53.6-89.6 59.7-95.9 3.1-3.1 8.6-3.1 11.7 0 6.1 6.2 59.7 61.8 59.7 95.9 0 36.1-29.4 65.5-65.6 65.5zm0-143.8c-17.7 19.2-49.2 57.6-49.2 78.2 0 27.1 22.1 49.2 49.2 49.2s49.2-22.1 49.2-49.2c0-20.6-31.5-59-49.2-78.2z"/></symbol><symbol id="icon-fb" viewBox="0 0 16.3 31.4"><path d="M10.6 31.4V17.1h4.8l.7-5.6h-5.5V7.9c0-1.6.4-2.7 2.8-2.7h3v-5C15.8.2 14 0 12 0 7.7 0 4.8 2.6 4.8 7.4v4.1H0v5.6h4.8v14.3h5.8z"/></symbol><symbol id="icon-file" viewBox="0 0 15.6 15.6"><path d="M6.8.038c-.8 0-1.5.4-2 .9-.4.5-.6 1.1-.6 1.7 0 .9.4 1.6.9 2.3.2.4.5.8.7 1.2-.4 1.2-.9 2.6-1.4 3.7-.6.1-1.2.3-1.9.5-.6.2-1.2.5-1.7 1s-.8 1.2-.8 2c0 .5.2 1.1.6 1.5.4.4 1 .8 1.7.8 1.5 0 2.5-1 3.2-2.1.5-.7.8-1.4 1-2 1-.3 2.1-.6 3.1-.9.8.8 1.9 1.7 3.4 1.7 1.6 0 2.6-1.3 2.6-2.4 0-.6-.2-1.2-.7-1.7-.5-.5-1.2-.8-1.9-.8-.9 0-1.7.3-2.5.6-.7-.7-1.4-1.7-2-2.5.1-.3.2-.6.4-.9.3-.7.5-1.3.5-2.1 0-.6-.2-1.1-.6-1.7-.4-.4-1.1-.8-2-.8zm0 1.9c.3 0 .4.1.5.2.1.1.2.4.2.4 0 .1-.1.7-.4 1.3 0 .1-.1.2-.1.3-.1-.1-.1-.2-.2-.4-.4-.6-.6-1.2-.6-1.2 0-.1.1-.3.2-.5 0 0 .2-.1.4-.1zm.6 5.4c.4.6.8 1 1.2 1.5-.7.2-1.3.3-2 .6.3-.7.6-1.4.8-2.1zm5.6 2.1c.3 0 .4.1.5.2s.1.2.1.4c0 .1 0 .5-.6.5-.3 0-.8-.3-1.3-.6.5-.4 1-.5 1.3-.5zm-8.8 2.4l-.3.6c-.5.8-1.1 1.2-1.6 1.2-.2 0-.2 0-.2-.1 0 0-.1-.1-.1-.2 0-.3.1-.5.3-.6.2-.2.5-.4 1-.5.2-.2.5-.3.9-.4z"/></symbol><symbol id="icon-gumb" viewBox="0 0 32 32"><path d="M4 10h24a2 2 0 0 0 0-4H4a2 2 0 0 0 0 4zm24 4H4a2 2 0 0 0 0 4h24a2 2 0 0 0 0-4zm0 8H4a2 2 0 0 0 0 4h24a2 2 0 0 0 0-4z"/></symbol><symbol id="icon-hand" viewBox="0 0 28 27.6"><path fill="#1C4688" d="M5.9 2.7c-1 .7-1.9 1.5-2.6 2.5l2 1.8c.7-.8 1.4-1.5 2.3-2.1L5.9 2.7z"/><path fill="#E12026" d="M2.2 6.7C1.5 7.8 1 9 .6 10.3l2.6.6c.2-.9.7-1.9 1.2-2.7L2.2 6.7z"/><path fill="#C0C0E5" d="M.1 14c0 7.7 6.2 13.5 13.9 13.5S27.9 21.6 27.9 14C27.9 6.3 21.7.1 14 .1c-.4 0-.8 0-1.2.1l.1 2.6h1.2c6.2 0 11.2 5 11.2 11.2 0 6.2-5 10.9-11.2 10.9-6.3 0-11.3-4.7-11.3-10.9 0-.6.1-1.3.2-1.9H.3c-.1.6-.2 1.2-.2 1.9z"/><linearGradient id="a" gradientUnits="userSpaceOnUse" x1=".248" y1="13.814" x2="27.707" y2="13.814"><stop offset="0" stop-color="#d2dcea"/><stop offset=".545" stop-color="#e2e7ee"/><stop offset="1" stop-color="#f2f3f3"/></linearGradient><path fill="url(#a)" d="M14 27.4C6.4 27.4.2 21.6.2 14c0-.6 0-1.2.1-1.8h2.4c-.1.6-.1 1.3-.1 1.8 0 6.3 5.1 11 11.4 11 6.3 0 11.4-4.8 11.4-11 0-6.3-5.1-11.4-11.4-11.4h-1L12.9.3H14C21.6.3 27.7 6.5 27.7 14c0 7.6-6.2 13.4-13.7 13.4z"/><linearGradient id="b" gradientUnits="userSpaceOnUse" x1=".513" y1="13.814" x2="27.444" y2="13.814"><stop offset="0" stop-color="#d2dcea"/><stop offset=".545" stop-color="#e2e7ee"/><stop offset="1" stop-color="#f2f3f3"/></linearGradient><path fill="url(#b)" d="M14 27.1C6.4 27.1.5 21.3.5 14c0-.5 0-1 .1-1.5h1.9c-.1.5-.1 1-.1 1.5 0 6.3 5.1 11.3 11.6 11.3s11.6-5 11.6-11.3c0-6.4-5.2-11.6-11.6-11.6h-.8V.6h.8c7.4 0 13.5 6 13.5 13.5-.1 7.2-6 13-13.5 13z"/><linearGradient id="c" gradientUnits="userSpaceOnUse" x1="16.449" y1="-.905" x2="11.889" y2="26.709"><stop offset="0" stop-color="#f1f3f5"/><stop offset=".105" stop-color="#e1e6ee"/><stop offset=".161" stop-color="#d7ddea"/><stop offset=".172" stop-color="#d8dfeb"/><stop offset=".252" stop-color="#dae7f1"/><stop offset=".379" stop-color="#dbeaf3"/><stop offset=".492" stop-color="#d9e8ef"/><stop offset=".574" stop-color="#d4e3e7"/><stop offset=".615" stop-color="#d1dbe1"/><stop offset=".706" stop-color="#ccd0d8"/><stop offset=".802" stop-color="#cbccd5"/><stop offset="1" stop-color="#cbd0d7"/></linearGradient><path fill="url(#c)" d="M14 26.9C6.5 26.9.7 21.2.7 14c0-.4 0-.9.1-1.3h1.5c-.1.5-.1.9-.1 1.3 0 6.4 5.2 11.5 11.8 11.5 6.6 0 11.8-5 11.8-11.5S20.5 2.2 14 2.2H13.4V.8h.6c7.3 0 13.3 6 13.3 13.3-.1 7.1-5.9 12.8-13.3 12.8z"/><linearGradient id="d" gradientUnits="userSpaceOnUse" x1="22.395" y1="1.706" x2="21.406" y2="7.699"><stop offset="0" stop-color="#e2e7e9"/><stop offset=".209" stop-color="#d8dde1"/><stop offset=".555" stop-color="#ced3d9"/><stop offset="1" stop-color="#cbd0d7"/></linearGradient><path fill="url(#d)" d="M25.8 8.4c.1-.1 0-.5 0-.5-1.6-3.1-4.5-5.5-7.8-6.5v1.5c2.6.8 4.4 2.4 5.9 4.6 0 0 .5.5.9.6.4.1.9.4 1 .3z"/><linearGradient id="e" gradientUnits="userSpaceOnUse" x1="7.321" y1="2.264" x2="11.42" y2="2.264"><stop offset="0" stop-color="#fff"/><stop offset=".016" stop-color="#fbfbfd"/><stop offset=".19" stop-color="#d3d3ed"/><stop offset=".28" stop-color="#c4c4e7"/><stop offset=".336" stop-color="#c8c8e8"/><stop offset=".388" stop-color="#d3d3ed"/><stop offset=".439" stop-color="#e6e5f4"/><stop offset=".472" stop-color="#f7f6fb"/><stop offset=".507" stop-color="#f5f3fa"/><stop offset=".632" stop-color="#f0eef8"/><stop offset=".666" stop-color="#edecf7"/><stop offset=".819" stop-color="#e4e3f3"/><stop offset=".834" stop-color="#e3e2f3"/><stop offset=".978" stop-color="#deddf1"/></linearGradient><path fill="url(#e)" d="M11.4 3L10.8.5c-1.2.3-2.4.7-3.5 1.3L8.7 4c.9-.5 1.6-.8 2.7-1z"/><path fill="#FFF" d="M8.7 3.9l-1.2-2c1-.5 2.1-1 3.2-1.2l.5 2.2c-.9.2-1.6.5-2.5 1z"/><radialGradient id="f" cx="262.572" cy="-178.08" r="4.055" gradientTransform="rotate(21.963 -331.31 -741.122)" gradientUnits="userSpaceOnUse"><stop offset="0" stop-color="#fff"/><stop offset=".912" stop-color="#b0b0b0"/><stop offset="1" stop-color="#a8a8a8"/></radialGradient><path fill="url(#f)" d="M8.9 2.8l-1.4-.9c1-.5 2.1-1 3.2-1.2l-.4 1.6-1.4.5z"/><path fill="#FFFFFE" d="M8.9 2.6l-1.4-.7c.9-.5 2-1 3.2-1.2l-.5 1.4-1.3.5z"/><radialGradient id="g" cx="-319.964" cy="91.172" r="1.909" gradientTransform="rotate(-23.263 -361.135 -731.197)" gradientUnits="userSpaceOnUse"><stop offset="0" stop-color="#fff"/><stop offset="1" stop-color="#ec5355"/></radialGradient><path fill="url(#g)" d="M2.5 9.8l-1.7.4C1.2 9.1 1.6 8 2.2 7l.9 1.4-.6 1.4z"/><radialGradient id="h" cx="-319.044" cy="92.651" r="2.826" gradientTransform="rotate(-23.263 -361.135 -731.197)" gradientUnits="userSpaceOnUse"><stop offset=".363" stop-color="#fff"/><stop offset="1" stop-color="#dd0031"/></radialGradient><path fill="url(#h)" d="M2.4 9.7l-1.4.4c.3-1 .7-1.9 1.2-2.8L3 8.4l-.6 1.3z"/><linearGradient id="i" gradientUnits="userSpaceOnUse" x1="-319.474" y1="92.638" x2="-320.266" y2="91.373" gradientTransform="rotate(-23.263 -361.135 -731.197)"><stop offset="0" stop-color="#fff"/><stop offset="1" stop-color="#dd0031"/></linearGradient><path fill="url(#i)" d="M2.4 9.7l-1.3.3c.3-.9.7-1.8 1.1-2.6l.6 1.1-.4 1.2z"/><linearGradient id="j" gradientUnits="userSpaceOnUse" x1="1.477" y1="14.832" x2="1.477" y2="13.085"><stop offset="0" stop-color="#c7cddf"/><stop offset=".264" stop-color="#cbd1e1"/><stop offset=".535" stop-color="#d7dce8"/><stop offset=".808" stop-color="#eceef4"/><stop offset="1" stop-color="#fff"/></linearGradient><path fill="url(#j)" d="M2.2 14c0-.4 0-.9.1-1.3H.8c0 .4-.1.9-.1 1.3 0 0 .3.5.5.5s.6 0 .6-.2c.1-.1.4-.3.4-.3z"/><path fill="#A8A8A8" d="M3.1 5.2c.9-1 1.8-1.9 2.8-2.6l.1-.1 1.7 2.3-.2.1C6.7 5.5 6 6.2 5.3 7l-.1.1-2.1-1.9zm2.1 1.6c.6-.8 1.3-1.4 2.1-2L5.9 2.9c-.9.6-1.7 1.4-2.5 2.3l1.8 1.6zm.6-4zM.5 10.4v-.1c.3-1.3.9-2.5 1.6-3.7l.1-.1 2.4 1.6-.1.2C4 9 3.6 10 3.3 10.9v.1l-2.8-.6zm2.6.3c.3-.8.7-1.7 1.1-2.5l-2-1.4c-.6 1-1.1 2.2-1.5 3.4l2.4.5zm-1-3.9z"/><path fill="#666" d="M0 14c0-.7 0-1.3.1-1.9V12H3v.1c-.1.6-.2 1.3-.2 1.9 0 6.1 5 10.8 11.1 10.8S25 20.1 25 14c0-6.1-5-11.1-11.1-11.1h-1.3V.1h.1c.4-.1.9-.1 1.3-.1 7.7 0 14 6.3 14 14s-6.3 13.6-14 13.6S0 21.7 0 14zm14 13.4c7.6 0 13.7-5.8 13.7-13.4C27.7 6.4 21.5.3 14 .3h-1.1v2.3H14c6.3 0 11.3 5.1 11.3 11.3 0 6.3-5.1 11-11.3 11C7.7 25 2.7 20.2 2.6 14c0-.6.1-1.2.1-1.8H.3c-.1.6-.1 1.2-.1 1.8 0 7.6 6.2 13.4 13.8 13.4z"/><path fill="#A8A8A8" d="M7.2 1.8l.1-.1C8.4 1.1 9.6.6 10.8.3h.1l.5 2.6h-.1.1V3h-.1c-1.1.2-1.7.5-2.6 1v.1L7.2 1.8zm1.5 2c.9-.5 1.5-.7 2.5-1L10.7.5c-1.1.4-2.2.8-3.2 1.4l1.2 1.9z"/><radialGradient id="k" cx="5.014" cy="4.431" r=".72" gradientUnits="userSpaceOnUse"><stop offset=".043" stop-color="#fff"/><stop offset=".145" stop-color="#cdd6e4"/><stop offset=".27" stop-color="#97aac6"/><stop offset=".396" stop-color="#6983ad"/><stop offset=".521" stop-color="#436498"/><stop offset=".645" stop-color="#264c88"/><stop offset=".766" stop-color="#113b7c"/><stop offset=".886" stop-color="#043075"/><stop offset="1" stop-color="#002d73"/></radialGradient><path fill="url(#k)" d="M5.1 5.4l-1.4-.3c.6-.7 1.3-1.4 2.1-2L6 4.5l-.9.9z"/><linearGradient id="l" gradientUnits="userSpaceOnUse" x1="4.885" y1="4.289" x2="5.275" y2="4.893"><stop offset="0" stop-color="#fff"/><stop offset=".1" stop-color="#f9fbfc"/><stop offset=".229" stop-color="#e9eff5"/><stop offset=".373" stop-color="#cfdbe8"/><stop offset=".528" stop-color="#aac0d6"/><stop offset=".693" stop-color="#7b9dbf"/><stop offset=".863" stop-color="#4272a4"/><stop offset="1" stop-color="#0e4c8b"/></linearGradient><path fill="url(#l)" d="M5.1 5.3l-1.3-.2c.6-.7 1.2-1.3 2-1.8L6 4.4l-.9.9z"/><radialGradient id="m" cx="-320.05" cy="91.655" r="1.05" gradientTransform="rotate(-23.263 -361.135 -731.197)" gradientUnits="userSpaceOnUse"><stop offset="0" stop-color="#fff"/><stop offset="1" stop-color="#e12026"/></radialGradient><path fill="url(#m)" d="M2.5 9.8l-1.7.4C1.2 9.1 1.6 8 2.2 7l.9 1.4-.6 1.4z"/><radialGradient id="n" cx="-319.95" cy="91.137" r="1.598" gradientTransform="rotate(-23.263 -361.135 -731.197)" gradientUnits="userSpaceOnUse"><stop offset=".363" stop-color="#fff"/><stop offset="1" stop-color="#e12026"/></radialGradient><path fill="url(#n)" d="M2.4 9.7l-1.4.4c.3-1 .7-1.9 1.2-2.8L3 8.4l-.6 1.3z"/><linearGradient id="o" gradientUnits="userSpaceOnUse" x1="1.752" y1="8.71" x2="2.494" y2="9.213"><stop offset="0" stop-color="#fff"/><stop offset="1" stop-color="#e12026"/></linearGradient><path fill="url(#o)" d="M2.4 9.7l-1.3.3c.3-.9.7-1.8 1.1-2.6l.6 1.1-.4 1.2z"/><path fill="#FFF" d="M16.5 21.5c-2 0-3.6-.3-5.4-2.8-1.8-2.5 0 0 0 0s-1.8-2.5-3-4.3c-.8-1.2-1.4-1.9-.9-2.4.4-.2.9-.1 1.1.2 0 0 .1.1.1.2.1.2.5.4.7.7l.1.1c.4.5.7.9 1.2 1.5l.1.1c1 1.3 1.8 2.3 1.8 2.3 1.2 1.4 2.7 2 3.3 2.1 1.6.2 2.4-.5 2.8-.8.6-.4 1.2-1.5 1.2-2.6 0-1.2-.3-2.1-1.2-3.3l-2.9-4.1c-.3-.3-.2-.9.1-1.1.3-.3.9-.2 1.1.1l2.8 3.8c1.1 1.5 2.1 3.1 2.1 4.7 0 1.5-.7 3-2 4-.8.9-2 1.6-3.1 1.6z"/><linearGradient id="p" gradientUnits="userSpaceOnUse" x1="25.034" y1="15.049" x2="26.559" y2="17.69" gradientTransform="rotate(.596 -289.623 -753.936)"><stop offset="0" stop-color="#d1d7e0"/><stop offset=".365" stop-color="#eaeaeb"/><stop offset=".607" stop-color="#e6e6ea"/><stop offset=".787" stop-color="#d8dbe0"/><stop offset=".896" stop-color="#e6e5e7"/><stop offset="1" stop-color="#fff"/></linearGradient><path fill="url(#p)" d="M16.3 21.2c-1.2 0-3.2-.5-4.9-2.7-.1-.1-1.8-2.4-2.9-4.1-.2-.3-.5-.8-.7-1-.5-.6-.4-.9-.3-1 .1 0 .1-.1.2-.1.2 0 .3.1.4.2l.2.1v.2l.4.2.3.4c.4.5.8 1.1 1.4 1.7 0 0 1.8 2.4 1.8 2.5 1.1 1.4 2.8 2.1 3.5 2.2h.5c1.3 0 2-.5 2.4-.8l.1-.1c.6-.5 1.3-1.6 1.4-2.9 0-1.3-.5-2.2-1.3-3.5l-2.9-4.1c-.1-.1-.1-.2-.1-.4 0-.1.1-.2.2-.3.1-.1.2-.1.3-.1.1 0 .3.1.4.2l3 3.7c1.1 1.4 1.8 3.1 1.8 4.6 0 1.4-.7 2.8-1.8 3.8-.8.4-2.2 1.3-3.4 1.3z"/><path fill="#FFF" d="M11 14.2L5.6 6.6c-.3-.3-.2-.9.2-1.1.4-.3.9-.2 1.1.2l5.4 7.6c.3.4.2.9-.2 1.1-.2.1-.3.2-.5.1-.2.1-.5-.1-.6-.3z"/><linearGradient id="q" gradientUnits="userSpaceOnUse" x1="16.676" y1="6.108" x2="19.831" y2="17.888" gradientTransform="rotate(.596 -289.623 -753.936)"><stop offset="0" stop-color="#edf6fc"/><stop offset=".198" stop-color="#e1e5e8"/><stop offset=".246" stop-color="#dde0e2"/><stop offset=".259" stop-color="#dee2e5"/><stop offset=".344" stop-color="#e4edf3"/><stop offset=".45" stop-color="#e7f4fb"/><stop offset=".64" stop-color="#e8f6fd"/><stop offset=".665" stop-color="#e1edf3"/><stop offset=".747" stop-color="#ced5d8"/><stop offset=".829" stop-color="#c0c3c4"/><stop offset=".913" stop-color="#b8b8b9"/><stop offset="1" stop-color="#b5b5b5"/><stop offset="1" stop-color="#fff"/></linearGradient><path fill="url(#q)" d="M11.6 14.2c-.2 0-.3-.1-.4-.2L5.8 6.4c0-.1-.1-.2 0-.3 0-.1.1-.2.2-.3 0-.1.1-.1.2-.1.2 0 .3.1.4.2l5.4 7.6c.2.2.1.5-.1.7h-.3z"/><path fill="#FFF" d="M13.5 13.8l-4-5.7c-.3-.3-.2-.8.2-1.1.4-.3.9-.2 1.1.2l4 5.7c.3.4.2.9-.2 1.1-.2.1-.3.2-.5.1-.2.1-.4-.1-.6-.3z"/><linearGradient id="r" gradientUnits="userSpaceOnUse" x1="19.141" y1="3.786" x2="22.154" y2="14.716" gradientTransform="rotate(.596 -289.623 -753.936)"><stop offset="0" stop-color="#ebf7fd"/><stop offset=".188" stop-color="#e8f4fa"/><stop offset=".352" stop-color="#dfe9f2"/><stop offset=".446" stop-color="#d6dfea"/><stop offset=".49" stop-color="#e1eaf3"/><stop offset=".559" stop-color="#ecf5fa"/><stop offset=".64" stop-color="#eff8fd"/><stop offset=".724" stop-color="#dae0e3"/><stop offset=".829" stop-color="#c6c8ca"/><stop offset=".924" stop-color="#b9baba"/><stop offset="1" stop-color="#b5b5b5"/><stop offset="1" stop-color="#fff"/></linearGradient><path fill="url(#r)" d="M14.2 13.8c-.2 0-.3-.1-.4-.2l-4-5.7c-.1-.1-.1-.2-.1-.3 0-.1.1-.2.2-.3.1-.1.2-.1.3-.1.2 0 .3.1.4.2l4 5.7c.2.2.1.5-.1.7h-.3z"/><path fill="#FFF" d="M15.8 13l-3.5-5c-.3-.4-.2-.9.2-1.1.4-.3.9-.2 1.1.2l3.6 5.1c.3.4.2.9-.2 1.1-.2.1-.3.2-.5.1-.3 0-.5-.2-.7-.4z"/><linearGradient id="s" gradientUnits="userSpaceOnUse" x1="22.701" y1="5.663" x2="22.448" y2="11.937" gradientTransform="rotate(.596 -289.623 -753.936)"><stop offset="0" stop-color="#ebf7fd"/><stop offset=".519" stop-color="#dbdde7"/><stop offset=".554" stop-color="#e5eaf2"/><stop offset=".602" stop-color="#edf5fa"/><stop offset=".658" stop-color="#eff8fd"/><stop offset=".738" stop-color="#dae0e3"/><stop offset=".837" stop-color="#c6c8ca"/><stop offset=".928" stop-color="#b9baba"/><stop offset="1" stop-color="#b5b5b5"/><stop offset="1" stop-color="#fff"/></linearGradient><path fill="url(#s)" d="M16.5 13c-.2 0-.3-.1-.4-.2l-3.5-5.1c-.2-.2-.1-.5.1-.7h.3c.2 0 .3.1.4.2l3.5 5.1c.2.2.1.5-.1.7h-.3z"/><linearGradient id="t" gradientUnits="userSpaceOnUse" x1="16.878" y1="10.735" x2="14.725" y2="7.481" gradientTransform="rotate(.596 -289.623 -753.936)"><stop offset="0" stop-color="#fff7f5"/><stop offset=".497" stop-color="#f9fcff"/><stop offset=".608" stop-color="#f2f5f8"/><stop offset=".769" stop-color="#dee1e6"/><stop offset=".81" stop-color="#d8dbe0"/><stop offset=".896" stop-color="#e6e5e7"/><stop offset="1" stop-color="#fff"/></linearGradient><path fill="url(#t)" d="M8.9 13.5c-.3-.3-1.3-.8-1.3-.8-.5-.6-.3-.4-.2-.5.1 0 .1-.1.2-.1.2 0 .3.1.5.2 0 0 .1.1.2.1l.1.2.3.4.3.3c.5.7.4.5.8.9-.1 0-.6-.4-.9-.7z"/><path fill="#666" d="M11 18.7c-.9-1.2-1.6-2.5-2.8-4.2-.6-.9-1.2-1.6-1.2-2.1 0-.2.1-.3.2-.4.1-.1.2-.1.4-.1.4 0 .8.2 1.2.6.3.2.9.9.9.9.6.7 1 1.4 1 1.4 1 1.4 1.9 2.5 1.9 2.5 1.1 1.4 2.7 2 3.2 2h.5c1.2 0 1.9-.6 2.2-.8.5-.4 1.2-1.4 1.2-2.5s-.5-1.9-1.2-3.1l-2.9-4.1c-.1-.2-.2-.4-.2-.6 0-.3.1-.5.3-.7.2-.1.3-.2.5-.2.3 0 .7.2 1 .5l2.8 3.9c1.2 1.6 1.9 2.8 1.9 4.5 0 1.6-.8 3.1-2 4.1-.9.7-2.1 1.4-3.3 1.4h-.5c-1.6-.1-3.8-1.1-5.1-3zm5.5 2.8v-.1c1.1 0 2.3-.7 3.2-1.4 1.2-1 1.9-2.4 1.9-3.9s-.7-2.8-1.9-4.3l-2.8-3.9c-.2-.3-.5-.4-.8-.4-.2 0-.3 0-.4.1-.2.1-.3.3-.3.5s.1.3.2.4l2.9 4.1c.7 1.2 1.2 2.1 1.2 3.3 0 1.2-.7 2.3-1.3 2.7-.3.2-1.1.9-2.4.9h-.5c-.6-.1-2.2-.7-3.4-2.1 0 0-.8-1.1-1.9-2.5l-1-1.4s-.6-.7-.8-.9c-.4-.3-.8-.5-1.1-.5-.1 0-.2 0-.2.1-.1.1-.1.1-.1.2 0 .4.5 1.1 1.2 2 1.2 1.8 1.9 3 2.8 4.2 1.3 1.8 3.4 2.8 4.8 2.8h.5l.2.1z"/><path fill="#666" d="M11.6 14.7c-.3 0-.6-.1-.8-.4l.1-.1.1-.1c.1.2.3.3.5.3.1 0 .3 0 .4-.1.2-.1.3-.4.3-.6 0-.1 0-.3-.1-.4L6.8 5.7c-.1-.1-.4-.3-.6-.3-.1 0-.3 0-.4.1-.2.2-.3.4-.3.6 0 .1 0 .3.1.4l5.4 7.6v.1l-.1.1-5.4-7.6c-.1-.2-.2-.4-.2-.6 0-.3.1-.6.4-.8.2 0 .3-.1.5-.1.3 0 .6.1.8.4l5.4 7.6c.1.2.2.4.2.5 0 .3-.1.6-.4.8-.2.1-.4.2-.6.2zM14.2 14.3c-.3 0-.5-.1-.7-.4l.1-.1-.1.1-4-5.7c-.2-.2-.3-.3-.3-.5 0-.3.1-.6.4-.8.2-.1.4-.2.5-.2.3 0 .6.1.8.4l4 5.7c.1.2.2.4.2.5 0 .3-.1.6-.4.8-.1.1-.3.2-.5.2zm0-.2c.1 0 .3 0 .4-.1.2-.1.3-.4.3-.6 0-.1 0-.3-.1-.4l-4-5.7c-.2-.2-.4-.3-.6-.3-.2 0-.3 0-.4.1-.2.1-.3.3-.3.6 0 .1 0 .3.1.4l4 5.7c.2.1.4.3.6.3zM16.5 13.5c-.3 0-.5-.1-.7-.4l.1-.1-.1.1L12.2 8c-.1-.1-.2-.3-.2-.5 0-.3.1-.6.4-.8.2-.1.4-.2.5-.2.3 0 .6.1.8.4l3.5 5.1c.1.2.2.4.2.5 0 .3-.1.6-.4.8-.1.1-.3.2-.5.2zm0-.3c.2 0 .3 0 .4-.1.2-.1.3-.4.3-.6 0-.1 0-.3-.1-.4L13.6 7c-.1-.2-.4-.3-.6-.3-.1 0-.3 0-.4.1-.2.1-.3.4-.3.6 0 .1 0 .3.1.4l3.6 5.1c.1.2.3.3.5.3z"/></symbol><symbol id="icon-house" viewBox="-39 -9.2 30 28"><path d="M-19.2-9.162c-.1 0-.3.1-.4.2l-1.8 1.8h-15.1-.1c-1.3.1-2.4 1.2-2.4 2.5v1.5h4v19.5c0 1.4 1.1 2.5 2.5 2.5h19c1.4 0 2.5-1.1 2.5-2.5v-1.5h-4v-1h3.5c.3 0 .5-.2.5-.5v-11.5h1.5c.3 0 .5-.2.5-.5 0-.1-.1-.3-.1-.3l-1.9-1.9v-4.3c0-.3-.2-.5-.5-.5h-2c-.3 0-.5.2-.5.5v1.3l-4.9-5c-.1-.2-.2-.3-.3-.3zm0 1.2l8.5 8.8h-17.1l8.6-8.8zm-17.3 1.8c.8 0 1.5.7 1.5 1.5v.5h-3v-.5c0-.8.7-1.5 1.5-1.5zm2 0h12.2l-7 7.2c-.2.2-.2.5 0 .7.1.1.2.1.3.1h1.9v11.5c0 .3.2.5.5.5H-16v1h-15v1.5c0 .8-.7 1.5-1.5 1.5s-1.5-.7-1.5-1.5v-21c0-.6-.2-1.1-.5-1.5zm21.5 1.4h1v2.8l-1-1v-1.8zm-16 .6v1h3v-1h-3zm-3 3v1h3v-1h-3zm0 2v1h2v-1h-2zm6 1h14v11h-4.5v-7c0-.3-.2-.5-.5-.5h-4c-.3 0-.5.2-.5.5v7H-26v-11zm-6 1v1h4v-1h-4zm0 2v1h4v-1h-4zm11.5 1.5h3v6.5h-3v-6.5zm-11.5.5v1h4v-1h-4zm0 2v1h4v-1h-4zm2 7h18v.5c0 .8-.7 1.5-1.5 1.5h-17c.3-.4.5-.9.5-1.5v-.5z"/></symbol><symbol id="icon-houses" viewBox="0 0 223.3 162.9"><path d="M221.1 57.7l-75-56.5c-2-1.5-4.7-1.5-6.7 0L127 10.4l-12.3-9.3c-2-1.5-4.8-1.5-6.7 0l-12 9.1-12-9.1c-2-1.5-4.7-1.5-6.7 0l-75 56.5C.8 58.7 0 60.4 0 62.1v95.2c0 3.1 2.5 5.6 5.6 5.6h212.1c3.1 0 5.6-2.5 5.6-5.6V62.1c0-1.7-.8-3.4-2.2-4.4zm-9 94h-20.2V62.1c0-1.8-.8-3.4-2.2-4.5l-53.3-40.2 6.4-4.8 69.4 52.3v86.8zm-51 0V62.1c0-1.8-.8-3.4-2.2-4.5l-53.7-40.5 6.1-4.6 69.4 52.3v86.8h-19.6zm-71.4 0H71.4v-40.6h18.3v40.6zm11.2 0v-46.2c0-3.1-2.5-5.6-5.6-5.6H65.8c-3.1 0-5.6 2.5-5.6 5.6v46.2h-49V64.9l69.4-52.3L150 64.9v86.8h-49.1zm0 0"/></symbol><symbol id="icon-ical" viewBox="70.5 3 39 39.5"><path fill="transparent" stroke="#FFF" stroke-miterlimit="10" stroke-width="5" d="M71 38V14h38v24c0 2.2-1.8 4-4 4H75c-2.2 0-4-1.8-4-4"/><path fill="transparent" stroke="#FFF" stroke-miterlimit="10" stroke-width="5" d="M109 10v6H71v-6c0-2.2 1.8-4 4-4h30c2.2 0 4 1.8 4 4"/><g fill="transparent"><path d="M102 10c0 1.7-1.3 3-3 3s-3-1.3-3-3 1.3-3 3-3 3 1.3 3 3M84 10c0 1.7-1.3 3-3 3s-3-1.3-3-3 1.3-3 3-3 3 1.3 3 3"/></g><g fill="#FFF"><path d="M99 3c-1.1 0-2 .9-2 2v5c0 1.1.9 2 2 2s2-.9 2-2V5c0-1.1-.9-2-2-2M81 3c-1.1 0-2 .9-2 2v5c0 1.1.9 2 2 2s2-.9 2-2V5c0-1.1-.9-2-2-2"/></g><path fill="#fff" d="M99.638 33.514h-2.25V22.889c0-.313-.1-.525-.288-.6-.125-.075-.387-.1-.737-.1v-1.1h2.175c.737 0 1.1.312 1.1.962v11.463zm0 0h-2.25 2.25M95.9 28.014c0-1.913-1.488-2.75-3.612-2.75-1.263 0-2.463.212-3.375.425l.412 1.8a15.846 15.846 0 0 1 2.962-.313c1.263 0 1.488.213 1.488 1.05v.213h-1.887c-1.538 0-3.163.7-3.163 2.537 0 2.463 2.538 2.775 3.563 2.775 1.15 0 3.612-.425 3.612-.425v-5.312zm-2.125 3.725c-.525.075-1 .1-1.488.1-.624 0-1.487-.05-1.487-.738 0-.7.675-.737 1.488-.737h1.487v1.375M85.763 24.176l1.862.213.338-3.275c-.888-.263-2.325-.425-3.513-.425-4.525 0-5.912 1.937-5.912 5.237v2.563c0 3.325 1.312 5.262 5.912 5.262 1.2 0 2.663-.187 3.538-.45l-.238-1.812c-1.225.212-2.3.312-3.275.312-2.7 0-3.663-.762-3.663-3.212v-2.725c0-2.463.963-3.213 3.663-3.213.362 0 .738 0 1.125.025l.163 1.5M103.563 33.514h-2.226V22.889c0-.313-.124-.525-.312-.6-.125-.075-.388-.1-.738-.1v-1.1h2.176c.737 0 1.1.312 1.1.962v11.463zm0 0h-2.25 2.25M76.85 33.514H74.6v-6.538c0-.287-.1-.5-.287-.6-.138-.05-.388-.1-.763-.1v-1.1h2.2c.713 0 1.1.338 1.1.975v7.363zm0 0h-2.275 2.275M74.6 22.339h2.063v1.8H74.6v-1.8zm2.063 1.8h-2.088 2.087"/><path fill="#ADADAB" d="M106.037 20.689"/></symbol><symbol id="icon-incident" viewBox="0 0 17 17"><circle fill="#652D91" cx="8.5" cy="8.5" r="8.5"/><path fill="#FFF" stroke="#652D91" stroke-width="2" stroke-miterlimit="10" d="M3.8 12l4.7-8.1 4.7 8.1z"/><path fill="none" stroke="#652D91" stroke-width="3" stroke-linecap="round" stroke-linejoin="bevel" stroke-miterlimit="10" d="M8.5 6.9v1.5"/><circle fill="#652D91" cx="8.5" cy="9.8" r=".4"/></symbol><symbol id="icon-instruments" viewBox="0.5 -46.5 86.9 86.7"><path d="M82.2 9.9c-5-5-12.6-6.5-19.2-3.9L49.9-7l21.5-21.5h4.7c.5 0 .9-.2 1.2-.6l6.6-8.7c.4-.6.4-1.4-.1-2l-1.6-1.6-1.6-1.6c-.5-.5-1.4-.6-2-.1l-8.7 6.6c-.4.3-.6.7-.6 1.2v4.7L47.8-9.1 34.7-22.2c2.7-6.6 1.2-14.1-3.9-19.2-4.9-4.9-12.3-6.5-18.8-4-.5.2-.8.6-.9 1.1s0 1 .4 1.4l6.6 6.6c1 1 1.5 2.3 1.5 3.7s-.5 2.7-1.5 3.7-2.3 1.5-3.7 1.5-2.7-.5-3.7-1.5l-6.6-6.6c-.4-.4-.9-.5-1.4-.4-.5.1-.9.5-1.1.9-2.4 6.5-.9 13.9 4 18.8 5 5 12.6 6.5 19.2 3.9l5.9 5.9-.6.6c-.3.3-.4.7-.4 1.1v1.6c0 1.3-1.1 2.4-2.4 2.4h-1.5c-.4 0-.8.2-1.1.4l-18.9 19c-1.2 1.2-1.9 3-1.9 4.7l.1 5.7c.1 4.3 3.5 7.7 7.7 7.7l5.7.1h.1c1.7 0 3.4-.7 4.6-1.9l19.1-19.1c.3-.3.4-.7.4-1.1v-1.5c0-1.3 1.1-2.4 2.4-2.4h1.6c.4 0 .8-.2 1.1-.4l.6-.6 5.9 5.9C50.5 22.4 52 29.9 57.1 35c4.9 4.9 12.3 6.5 18.8 4 .5-.2.8-.6.9-1.1s0-1-.4-1.4l-6.6-6.6c-1-1-1.5-2.3-1.5-3.7s.5-2.7 1.5-3.7 2.3-1.5 3.7-1.5 2.7.5 3.7 1.5l6.6 6.6c.4.4.9.5 1.4.4s.9-.5 1.1-.9c.8-2 1.1-4.1 1.1-6.2 0-4.5-1.8-9.1-5.2-12.5zm-9.9-44.5l7.1-5.3.6.7.7.7-5.3 7.1h-3.1v-3.2zM26.4-15.3c-.4-.4-1.1-.6-1.7-.3-5.6 2.7-12.4 1.5-16.8-2.9-3.5-3.5-5-8.5-4-13.3L8.7-27c3.2 3.2 8.4 3.2 11.6 0s3.2-8.4 0-11.6l-4.8-4.8c4.8-.9 9.8.5 13.3 4 4.4 4.4 5.6 11.1 2.9 16.8-.3.6-.2 1.3.3 1.7L45.8-7.1l-3.2 3.2-6.1-6.1c-.3-.3-.7-.4-1.1-.4s-.8.2-1.1.4L33-8.7l-6.6-6.6zM45.2 7.8l-1.1.1c-3 0-5.4 2.4-5.4 5.4v.9L20 32.9c-.7.7-1.6 1.1-2.6 1l-5.7-.1c-2.6 0-4.7-2.1-4.8-4.8l-.1-5.7c0-1 .4-1.9 1-2.6L26.5 2h.9c3 0 5.4-2.4 5.4-5.4v-1l.1-.1L35-6.6 47.2 5.6l-2 2.2zm38.9 17.5l-4.8-4.8c-3.2-3.2-8.4-3.2-11.6 0s-3.2 8.4 0 11.6l4.8 4.8c-4.8.9-9.8-.5-13.3-4-4.4-4.4-5.5-11.1-2.9-16.8.3-.6.2-1.3-.3-1.7l-6.5-6.6 1.2-1.2c.3-.3.4-.7.4-1.1s-.2-.8-.4-1.1l-6.1-6.1 3.2-3.2L61.6 8.9c.4.4 1.1.6 1.7.3 5.6-2.7 12.4-1.5 16.8 2.9 3.5 3.5 5 8.5 4 13.2z"/><path d="M30 6.2c-.6-.6-1.5-.6-2.1 0L11.1 23c-.6.6-.6 1.5 0 2.1.3.3.7.4 1.1.4s.8-.1 1.1-.4L30 8.4c.6-.6.6-1.6 0-2.2zM32.4 10.8L15.7 27.6c-.6.6-.6 1.5 0 2.1.3.3.7.4 1.1.4s.8-.1 1.1-.4l16.8-16.8c.6-.6.6-1.5 0-2.1s-1.7-.6-2.3 0z"/></symbol><symbol id="icon-lock" viewBox="5.2 -48.3 77.8 90.1"><path d="M44 41.8c-.5 0-.9-.1-1.3-.2-10.9-4.1-19.6-9.5-26.4-16.4-5.2-5.3-8.5-10.8-9.9-16.8C5.7 5.5 5.3 2.7 5.3 0c-.1-7.5-.1-15.2-.1-22.6v-8c0-2.6 1-3.7 3.6-3.9 8.7-.5 17.4-3.3 26.4-8.6 1.8-1 3.6-2.2 5.3-3.4l.9-.6c2.4-1.6 3.1-1.6 5.4 0 6.3 4.4 12.5 7.6 18.9 9.8 4.6 1.6 9.3 2.5 13.9 2.7 2.2.1 3.4 1.3 3.4 3.6v17c0 .2 0 .4-.1.6v4.3c0 3.7.1 7.4-.1 11.2-.2 6.3-2.4 12.2-6.7 18-4.8 6.5-11.1 11.7-19.3 16.2-2.8 1.5-5.8 2.8-8.7 4.1-.8.3-1.6.7-2.4 1.1-.5.2-1.1.3-1.7.3zM8.3-31.3v8.7c0 7.4 0 15 .1 22.5 0 2.5.4 5.1 1 7.7 1.3 5.5 4.3 10.5 9.1 15.4 6.5 6.6 14.8 11.8 25.3 15.7.1 0 .5 0 .7-.1.8-.4 1.6-.7 2.4-1.1 2.8-1.2 5.8-2.5 8.5-4 7.8-4.2 13.8-9.2 18.2-15.2C77.5 13 79.5 7.7 79.7 2c.1-3.7.1-7.4.1-11v-4.9c0-.2 0-.4.1-.6v-3.9-12.5-.4c-.1 0-.2 0-.4-.1-4.9-.3-9.9-1.2-14.8-2.9C58-36.5 51.5-39.9 45-44.5c-.3-.2-.7-.5-.9-.6-.2.1-.7.4-1 .6l-.8.6c-1.8 1.2-3.6 2.4-5.4 3.5-9.4 5.5-18.5 8.5-27.8 9-.5 0-.7 0-.8.1z"/><path d="M44 25.4c-9.5 0-17.2-7.7-17.2-17.2S34.5-8.9 44-8.9 61.2-1.2 61.2 8.2 53.5 25.4 44 25.4zm0-31.3C36.2-5.9 29.9.4 29.9 8.2S36.2 22.3 44 22.3 58.1 16 58.1 8.2 51.8-5.9 44-5.9z"/><path d="M55.7-.9c-.8 0-1.5-.7-1.5-1.5v-14.2c0-5.6-4.6-10.2-10.2-10.2s-10.2 4.6-10.2 10.2v14.2c0 .8-.7 1.5-1.5 1.5s-1.5-.7-1.5-1.5v-14.2c0-7.3 5.9-13.3 13.3-13.3 7.3 0 13.3 5.9 13.3 13.3v14.2c-.1.9-.8 1.5-1.7 1.5zM43 10.6v3.6c0 .7.3 1.2 1 1.2s1-.5 1-1.2v-3.6c2-.5 2.4-1.7 2.4-3.2C47.4 5.5 46 4 44.1 4s-3.4 1.5-3.4 3.4c0 1.5.3 2.7 2.3 3.2z"/></symbol><symbol id="icon-login" viewBox="0 0 399.3 391.4"><path d="M0 195.8c0 7.6 6.2 13.8 13.8 13.8h262.1l-51.1 51c-5.4 5.4-5.4 14.1 0 19.4 2.6 2.6 6.2 4 9.7 4 3.5 0 7-1.4 9.7-4l74.5-74.5c5.4-5.4 5.4-14.1 0-19.4l-74.5-74.5c-5.4-5.4-14.1-5.4-19.4 0-5.4 5.4-5.4 14.1 0 19.4l51 51h-262c-7.6.1-13.8 6.2-13.8 13.8zm0 0"/><path d="M317.1 391.4c45.4 0 82.2-36.9 82.2-82.2v-227c0-45.4-36.9-82.2-82.2-82.2h-227C44.8 0 8 36.9 8 82.2v46.6c0 7.6 6.2 13.7 13.7 13.7 7.6 0 13.8-6.2 13.8-13.7V82.2c0-30.2 24.6-54.8 54.7-54.8h227c30.2 0 54.7 24.6 54.7 54.8v227c0 30.2-24.6 54.8-54.7 54.8h-227c-30.2 0-54.7-24.6-54.7-54.8v-46.1c0-7.6-6.2-13.8-13.8-13.8-7.6 0-13.7 6.2-13.7 13.8v46.1c0 45.4 36.9 82.2 82.2 82.2h226.9zm0 0"/></symbol><symbol id="icon-maestro" viewBox="0 0 75.9 45.7"><g fill-rule="evenodd" clip-rule="evenodd"><path fill="#009DDD" d="M37.9 39.8c4.6-4.2 7.5-10.2 7.5-17 0-6.7-2.9-12.8-7.5-17-4-3.6-9.3-5.8-15.2-5.8C10.2 0 0 10.2 0 22.9c0 12.6 10.2 22.9 22.7 22.9 5.9-.1 11.2-2.3 15.2-6z"/><path fill="#ED1C2E" d="M53.2 0C47.3 0 42 2.2 37.9 5.9c-.8.7-1.6 1.6-2.3 2.4h4.6c.6.8 1.2 1.6 1.7 2.4h-8c-.5.8-.9 1.6-1.3 2.4h10.7c.4.8.7 1.6 1 2.4H31.6c-.3.8-.5 1.6-.7 2.4h13.9c.3 1.6.5 3.2.5 4.8 0 2.5-.4 5-1.2 7.3H31.6c.3.8.6 1.6 1 2.4h10.7c-.4.8-.8 1.6-1.3 2.4h-8c.5.8 1.1 1.7 1.7 2.4h4.6c-.7.9-1.5 1.7-2.3 2.4 4 3.7 9.4 5.9 15.2 5.9 12.5 0 22.7-10.2 22.7-22.9C75.9 10.2 65.7 0 53.2 0z"/><path fill="#ED1C2E" d="M72.9 35.6c0-.4.3-.7.7-.7.4 0 .7.3.7.7 0 .4-.3.7-.7.7-.4.1-.7-.3-.7-.7zm.7.6c.3 0 .6-.3.6-.6s-.2-.6-.6-.6c-.3 0-.6.3-.6.6s.3.6.6.6zm-.1-.3h-.2v-.6h.5c.1 0 .1.1.1.2s0 .1-.1.2l.1.3h-.2l-.1-.3h-.1v.2-.4h.2v-.1-.1h-.2V35.9z"/><path fill="#FFF" d="M68.1 27.8c0-.4.3-.7.7-.7.4 0 .7.3.7.7 0 .4-.3.7-.7.7-.4.1-.7-.3-.7-.7zm.7.6c.3 0 .6-.3.6-.6s-.2-.6-.6-.6c-.3 0-.6.3-.6.6s.3.6.6.6zm-.1-.2h-.2v-.6h.5c.1 0 .1.1.1.2s0 .1-.1.2l.1.3h-.2l-.1-.3h-.1v.2-.4h.2v-.1-.1h-.2V28.2zM19.9 28.6H17l1.7-8.9-3.8 8.9h-2.6l-.5-8.9-1.7 8.9H7.6L9.7 17h4.5l.2 7.1 3.1-7.1h4.6l-2.2 11.6zM51.4 28.5c-.8.2-1.4.3-2 .3-1.4 0-2.2-.7-2.2-2.1 0-.3 0-.5.1-.8l.2-.9.1-.7 1.3-7.2h2.8l-.4 2.2h1.4l-.4 2.3h-1.4l-.7 3.9v.4c0 .5.3.7 1 .7.3 0 .6 0 .8-.1l-.6 2zM59.7 19.2c-.2-.1-.3-.1-.3-.1-.1 0-.2-.1-.2-.1h-.3c-.9 0-1.6.4-2.5 1.5l.2-1.4H54l-1.7 9.4h2.8c1-5.8 1.4-6.8 2.8-6.8h.4l.3.1 1.1-2.6zM40.2 22.1c0 1.2.7 2 2.2 2.6 1.2.5 1.3.6 1.3 1 0 .6-.5.9-1.6.9-.9 0-1.6-.1-2.6-.4l-.4 2.2h.1l.5.1c.2 0 .4.1.7.1.7.1 1.2.1 1.6.1 3 0 4.4-1 4.4-3.1 0-1.3-.6-2.1-2-2.6-1.2-.5-1.3-.6-1.3-1 0-.5.5-.8 1.4-.8.6 0 1.3.1 2.1.1l.4-2.2c-.7-.1-1.9-.2-2.5-.2-3.2 0-4.3 1.5-4.3 3.2zM29.1 28.6h-2.3l.1-1c-.7.8-1.7 1.1-3 1.1-1.5 0-2.6-1-2.6-2.6 0-2.3 1.8-3.6 5-3.6.3 0 .7 0 1.2.1.1-.3.1-.4.1-.6 0-.6-.5-.9-1.8-.9-.8 0-1.7.1-2.3.3l-.4.1-.3.1.4-2.1c1.4-.4 2.3-.5 3.4-.5 2.4 0 3.7 1 3.7 2.8 0 .5 0 .8-.2 1.9l-.6 3.3-.1.6-.3.4v.6zM27 24.4h-.6c-1.6 0-2.4.5-2.4 1.4 0 .6.4 1 1 1 1.1-.1 1.9-1 2-2.4zM38.3 28.4c-1 .3-1.9.4-2.9.4-3.2 0-4.8-1.5-4.8-4.2 0-3.2 2.1-5.6 4.9-5.6 2.3 0 3.8 1.3 3.8 3.4 0 .7-.1 1.4-.3 2.3h-5.6v.3c0 1.1.8 1.7 2.5 1.7 1 0 1.9-.2 2.9-.6l-.5 2.3zm-1.5-5.6v-.5c0-.8-.5-1.2-1.3-1.2-.9 0-1.5.6-1.8 1.7h3.1zM68.5 24.3c-.4 3.1-2.6 4.5-5.5 4.5-3.2 0-4.5-2-4.5-4.3 0-3.3 2.2-5.6 5.6-5.6 2.9 0 4.5 1.9 4.5 4.3 0 .5 0 .5-.1 1.1zm-2.9-1.2c0-1-.4-1.9-1.6-1.9-1.4 0-2.3 1.7-2.3 3.2 0 1.3.6 2.1 1.6 2.1.6 0 1.9-.8 2.2-2.3 0-.3.1-.7.1-1.1z"/></g></symbol><symbol id="icon-master-card" viewBox="0 0 76.4 59.2"><path d="M13.9 59.1v-3.9c0-1.5-.9-2.5-2.5-2.5-.8 0-1.6.2-2.2 1.1-.4-.7-1.1-1.1-2.1-1.1-.7 0-1.3.2-1.8.9v-.8H4v6.3h1.4v-3.5c0-1.1.6-1.7 1.5-1.7s1.4.6 1.4 1.7v3.5h1.4v-3.5c0-1.1.6-1.7 1.5-1.7s1.4.6 1.4 1.7v3.5h1.3zm20.4-6.3H32v-1.9h-1.4v1.9h-1.3V54h1.3v2.9c0 1.5.6 2.3 2.2 2.3.6 0 1.3-.2 1.7-.5l-.4-1.2c-.4.2-.9.4-1.2.4-.7 0-.9-.4-.9-1v-2.8h2.2v-1.3zm11.6-.2c-.8 0-1.3.4-1.7.9v-.8h-1.4V59h1.4v-3.5c0-1 .4-1.6 1.3-1.6.3 0 .6 0 .9.2l.4-1.3c-.2-.1-.6-.2-.9-.2zm-17.6.7c-.7-.4-1.6-.7-2.6-.7-1.6 0-2.6.8-2.6 2 0 1 .8 1.7 2.2 1.8l.6.1c.7.1 1.1.3 1.1.7 0 .5-.5.8-1.4.8-.9 0-1.6-.3-2.1-.7l-.6 1.1c.7.6 1.7.8 2.7.8 1.8 0 2.9-.9 2.9-2s-.8-1.7-2.2-1.9l-.6-.1c-.6-.1-1.1-.2-1.1-.6 0-.5.4-.7 1.2-.7.8 0 1.6.3 2 .5l.5-1.1zm36.5-.7c-.8 0-1.3.4-1.7.9v-.8h-1.4V59h1.4v-3.5c0-1 .4-1.6 1.3-1.6.3 0 .6 0 .9.2l.4-1.3c-.2-.1-.6-.2-.9-.2zm-17.5 3.3c0 1.9 1.3 3.3 3.3 3.3.9 0 1.6-.2 2.3-.7l-.7-1.1c-.5.4-1 .6-1.6.6-1.1 0-1.9-.8-1.9-2s.8-2 1.9-2c.6 0 1.1.2 1.6.6l.7-1.1c-.7-.5-1.3-.7-2.3-.7-2-.2-3.3 1.2-3.3 3.1zm12.7 0v-3.1h-1.4v.8c-.4-.6-1.1-.9-2-.9-1.8 0-3.1 1.4-3.1 3.3s1.4 3.3 3.1 3.3c.9 0 1.5-.4 2-.9v.8H60v-3.3zm-5 0c0-1.1.7-2 1.9-2 1.1 0 1.9.9 1.9 2s-.8 2-1.9 2c-1.2 0-1.9-.9-1.9-2zm-16.5-3.3c-1.8 0-3.1 1.3-3.1 3.3 0 2 1.3 3.3 3.2 3.3.9 0 1.8-.2 2.6-.9l-.7-1c-.5.5-1.2.7-1.8.7-.9 0-1.7-.4-1.9-1.5h4.7V56c0-2-1.2-3.4-3-3.4zm0 1.3c.9 0 1.4.6 1.6 1.5h-3.3c.2-.9.7-1.5 1.7-1.5zm34.2 2v-5.7h-1.4v3.3c-.4-.6-1.1-.9-2-.9-1.8 0-3.1 1.4-3.1 3.3s1.4 3.3 3.1 3.3c.9 0 1.5-.4 2-.9v.8h1.4v-3.2zm-5.1 0c0-1.1.7-2 1.9-2 1.1 0 1.9.9 1.9 2s-.8 2-1.9 2c-1.2 0-1.9-.9-1.9-2zm-46 0v-3.1h-1.4v.8c-.4-.6-1.1-.9-2-.9-1.8 0-3.1 1.4-3.1 3.3s1.4 3.3 3.1 3.3c.9 0 1.5-.4 2-.9v.8h1.4v-3.3zm-5.1 0c0-1.1.7-2 1.9-2 1.1 0 1.9.9 1.9 2s-.8 2-1.9 2c-1.2 0-1.9-.9-1.9-2z"/><path fill="#F16022" d="M27.9 5h20.7v37.1H27.9z"/><path fill="#E91D25" d="M29.2 23.6c0-7.5 3.5-14.2 9-18.6-4-3.2-9.1-5-14.6-5C10.6 0 0 10.6 0 23.6c0 13 10.6 23.6 23.6 23.6 5.5 0 10.6-1.9 14.6-5-5.5-4.4-9-11.1-9-18.6z"/><path fill="#F69E1E" d="M76.4 23.6c0 13-10.6 23.6-23.6 23.6-5.5 0-10.6-1.9-14.6-5 5.5-4.3 9-11 9-18.6S43.7 9.4 38.2 5c4-3.2 9.1-5 14.6-5 13 0 23.6 10.6 23.6 23.6z"/></symbol><symbol id="icon-mir" viewBox="0 0 285.2 80.4"><style/><path fill="#21AA4D" d="M157.8 8.4l-17.9 38.8h-1.8V0h-25.4v80h21.6c5.7 0 10.8-3.3 13.2-8.4l17.9-38.8h1.8V80h25.4V0H171c-5.6 0-10.8 3.3-13.2 8.4M62.4 10.5L51.8 47.2H50L39.4 10.5C37.6 4.3 31.9 0 25.4 0H0v80h25.4V32.7h1.8L41.8 80H60l14.5-47.2h1.8V80h25.4V0H76.3c-6.4 0-12.1 4.3-13.9 10.5M203.5 36.3V80h25.4V54.5h27.3c11.9 0 21.9-7.6 25.7-18.2h-78.4z"/><linearGradient id="SVGID_1_" gradientUnits="userSpaceOnUse" x1="199.877" y1="16.356" x2="283.465" y2="16.356"><stop offset=".01" stop-color="#18a6df"/><stop offset=".237" stop-color="#15a0db"/><stop offset=".613" stop-color="#1191d0"/><stop offset="1" stop-color="#0d7ec3"/></linearGradient><path fill="#1294d2" d="M256.2 0h-56.3c3.4 18.6 19.7 32.7 39.3 32.7h43.7c.4-1.8.5-3.6.5-5.5.1-15-12.1-27.2-27.2-27.2"/></symbol><symbol id="icon-od" viewBox="0 0 17 17"><path d="M7.7 12c-1.3-.1-2.5-.5-3.5-1.3-.1-.1-.3-.2-.4-.3-.5-.4-.5-.9-.2-1.4.3-.4.8-.6 1.4-.3.1.1.2.1.3.2 1.9 1.3 4.5 1.3 6.4.1.2-.1.4-.3.6-.3.4-.1.9.1 1.1.4.3.5.3.9-.1 1.2-.5.5-1.2.9-1.9 1.2-.7.2-1.4.4-2.1.5l.2.2c1 1 2 2 2.9 3 .3.3.4.8.2 1.1-.2.4-.6.7-1.1.7-.3 0-.5-.2-.7-.4l-2.2-2.2c-.2-.2-.3-.2-.5 0-.7.8-1.5 1.5-2.3 2.3-.3.3-.8.4-1.1.2-.4-.2-.7-.6-.7-1.1 0-.3.2-.5.4-.7l2.9-2.9c.2-.1.3-.1.4-.2z"/><path d="M8.5 8.6c-2.4 0-4.3-2-4.3-4.3S6.1 0 8.5 0s4.3 2 4.3 4.3c0 2.4-2 4.3-4.3 4.3zm2.1-4.3c0-1.2-.9-2.1-2.1-2.1s-2.1 1-2.1 2.1c0 1.2.9 2.1 2.1 2.1 1.2 0 2.1-.9 2.1-2.1z"/></symbol><symbol id="icon-outlook" viewBox="0 0 103.2 104.3"><path fill="#0072C6" d="M64.6 22.1v20.4l7.1 4.5c.2.1.6.1.8 0l30.7-20.7c0-2.4-2.3-4.2-3.6-4.2h-35z"/><path fill="#0072C6" d="M64.6 50.1l6.5 4.5c.9.7 2 0 2 0-1.1.7 30.1-20 30.1-20v37.5c0 4.1-2.6 5.8-5.6 5.8h-33V50.1z"/><g fill="#0072C6"><path d="M30.79 40.89c-2.35 0-3.917 1.176-5.484 3.135s-1.568 4.702-1.568 8.228.784 6.268 1.96 8.227c1.175 1.96 3.134 3.134 5.093 3.134 2.35 0 3.917-1.175 5.093-3.134s1.959-4.701 1.959-8.227c0-3.526-.784-6.66-1.96-8.62-1.175-1.959-2.742-2.742-5.092-2.742z"/><path d="M-.16 11.899v79.924l60.726 12.93V.144L-.16 11.899zm40.745 53.283c-2.742 3.526-5.877 5.093-10.186 5.093-3.918 0-7.444-1.567-9.795-5.093-2.35-3.135-3.918-7.444-3.918-12.93 0-5.484 1.176-10.186 3.918-13.32 2.743-3.526 5.877-5.093 10.187-5.093 3.917 0 7.444 1.567 9.794 5.093 2.351 3.134 3.526 7.444 3.526 12.929.392 5.485-.783 9.795-3.526 13.32z"/></g></symbol><symbol id="icon-persent" viewBox="0 1.8 16.6 13.3"><path d="M6.8 6.6c0 .8-.7 1.5-1.5 1.5s-1.5-.7-1.5-1.5S4.4 5 5.3 5c.8.1 1.5.7 1.5 1.6zm-2 0c0 .3.2.5.5.5s.5-.2.5-.5-.2-.6-.5-.6c-.3.1-.5.3-.5.6zM10.6 10.4c0 .8-.7 1.5-1.5 1.5s-1.5-.7-1.5-1.5.7-1.5 1.5-1.5c.8-.1 1.5.6 1.5 1.5zm-2.1 0c0 .3.2.5.5.5s.5-.2.5-.5-.1-.6-.4-.6c-.3 0-.6.3-.6.6zM9.1 5.7l.7.7-4.7 4.7-.7-.7 4.7-4.7z"/><path d="M.1 15.1l.6-1.5-.7-1 .6-1-.6-1 .6-1.1-.6-1 .6-1L0 6.4l.6-1-.6-1 .7-1.1-.6-1.5h16.4v13.3H.1zM1.6 2.8l.2.6-.6 1 .6 1-.6 1 .6 1.1-.6 1 .6 1-.6 1 .6 1-.6 1 .6 1-.2.6h14V2.8h-14z"/><path d="M12.6 10.7h1v1.4h-1zM12.5 4.9h1v4.8h-1z"/></symbol><symbol id="icon-purse" viewBox="0 0 177 156.7"><path d="M114.9 156.7c-14.7 0-28.1-.5-28.4-.5-18.3-.7-62.6-3-77-10.5-11.5-5.9-10.6-25.4-7.3-97.8l.5-11.1 1.1-1.1c2.4-2.4 5.4-1.7 11-.5 7.8 1.7 24.1 5.1 55.3 5.1 1.3 0 6.4-.2 12.9-.4 67.2-2.4 73.5-1.6 76 0 5.6 3.7 5.1 13.5 4.6 23.1-.2 3.4-.3 6.5-.1 8.3.3 2.2-1.3 4.2-3.5 4.5-2.2.3-4.2-1.3-4.5-3.5-.3-2.5-.1-5.8.1-9.7.2-4.1.7-13.6-.8-15.8-7.2-1.2-53.7.4-71.5 1.1-7.2.1-11.9.3-13.3.3-32 0-48.8-3.6-56.9-5.3-.9-.2-1.8-.4-2.7-.5l-.3 5.9c-2.7 59.6-3.9 86.8 3 90.4 8.9 4.6 35.8 8.1 72.2 9.5 33.6 1.3 59 .2 62.9-1.3 2.5-2 4.4-15.9 4.1-29.5-.1-2.2 1.7-4 3.9-4.1 2.2-.1 4 1.7 4.1 3.9.3 9.3 0 31.6-7.9 36.6-3.8 2.3-21.5 2.9-37.5 2.9"/><path d="M129.8 121.3c-33.5 0-35.1-2.1-36.8-4.1-.8-1-1.1-2.2-1-3.5-3.8-8.4-8.7-28.2-.7-40.7.8-1.2 2-1.8 3.3-1.9.1 0 .2 0 .3-.1 7.8-.8 25.5-1.5 43-1.6 32.1-.2 34.6 1.4 35.8 2.2 1.8 1.2 3.9 2.6 3 22.7-.4 8.5-1.4 19.2-2.3 22.6-.9 3.2-3.2 3.6-4.1 3.6-17 .6-30.2.8-40.5.8M100 112c4.4.9 19.5 1.9 67.2.7 1.2-7.4 2.5-28.4 1.5-34.3-9.3-1.5-54.9-1-71.5.5-4.4 9.4-1 25.4 2.5 32.2.2.3.3.6.3.9M7.8 40.9c-.5 0-1.1-.1-1.6-.3-2-.9-3-3.2-2.1-5.2 3.4-7.9 12.3-13.1 26.7-15.5 7.7-1.2 26.7-2.5 41.7-2.3 2.2 0 4 1.8 4 4s-1.8 4-4 4h-.1c-15.4-.2-33.8 1.2-40.3 2.2-7.9 1.3-17.8 4.1-20.6 10.7-.6 1.5-2.1 2.4-3.7 2.4M149.4 44.4c-.7 0-1.4-.2-2.1-.6-1.8-1.1-2.4-3.4-1.5-5.3.7-2 .4-9.3-.5-11.7-3.4-1-16.1-1.3-20.4-1.4-2.2 0-4-1.9-3.9-4.1 0-2.2 1.8-3.9 4-3.9h.1c17.7.4 23.2 1.1 25.7 3.3l.1.1c4.1 4 3.9 18.3 1.9 21.6-.8 1.4-2.1 2-3.4 2"/><path d="M134 46c-1.5 0-2.9-.8-3.6-2.2-3.2-6.6-12.7-25.9-16.5-33.7-8.2 3.1-32.2 12.5-84.7 33.7-2 .8-4.4-.2-5.2-2.2-.8-2 .2-4.4 2.2-5.2 67.4-27.3 88-35 88.2-35.1l3.4-1.3 1.6 3.3s14 28.7 18.1 37c1 2 .1 4.4-1.8 5.4-.5.2-1.1.3-1.7.3M117.1 107c-4.3 0-8.7-2.5-11.1-6.3-2-3.2-2.2-6.7-.6-9.8.1-.3.2-.5.3-.8 3.2-6.1 9.9-8 16.3-4.8 5.9 3 8.5 9.1 6 14.1-3 6.2-7.8 7.4-10.3 7.5-.2 0-.4.1-.6.1m-4.2-13.3c-.1.3-.2.6-.4.8-.3.5-.2 1.2.3 1.9.9 1.5 2.8 2.6 4.5 2.5 1.4-.1 2.6-1.1 3.6-3 .5-1-.9-2.7-2.5-3.5-1.4-.7-4-1.4-5.5 1.3"/></symbol><symbol id="icon-request" viewBox="0 0 17 17"><circle fill="#65C5B7" cx="8.5" cy="8.5" r="8.5"/><path fill="none" stroke="#FFF" stroke-width="1.512" stroke-miterlimit="10" d="M5.5 8l6 3.8M5.5 8l6 3.8M11.6 8l-6 3.8"/><path fill="#FFF" stroke="#4A666C" stroke-width="1.512" stroke-miterlimit="10" d="M4.9 12.7V5c0-.4.3-.7.7-.7.4 0 .7.3.7.7v7.7H4.9zM10.8 12.7V5c0-.4.3-.7.7-.7.4 0 .7.3.7.7v7.7h-1.4z"/><path fill="#FFF" stroke="#4A666C" stroke-width="1.512" stroke-miterlimit="10" d="M3.6 5.8h9.8v2.6H3.6z"/><path fill="none" stroke="#4A666C" stroke-width="1.512" stroke-linecap="round" stroke-miterlimit="10" d="M7 5.5l-3.2 3M9.1 5.5L6 8.5M10.7 5.9L8.1 8.5M13.3 5.5l-3 2.8"/></symbol><symbol id="icon-search" viewBox="0 0 60 60"><path d="M58.7 53.3L43.1 37.6c2.8-3.9 4.5-8.7 4.5-13.8C47.6 10.7 36.9 0 23.8 0S0 10.7 0 23.9s10.6 23.9 23.8 23.9c5 0 9.8-1.7 13.7-4.5L53.2 59c1.4 1.4 3.9 1.4 5.6 0 1.6-1.7 1.6-4-.1-5.7zM23.8 42.1C13.7 42.1 5.6 34 5.6 23.9S13.7 5.7 23.8 5.7 42 13.8 42 23.9s-8.2 18.2-18.2 18.2z"/></symbol><symbol id="icon-sign-up" viewBox="0 0 30 30"><path d="M27 30H3c-1.7 0-3-1.3-3-3V5c0-1.7 1.1-3 2.5-3H4v2H2.5c-.2 0-.5.4-.5 1v22c0 .6.4 1 1 1h24c.6 0 1-.4 1-1V5c0-.6-.3-1-.5-1H26V2h1.5C28.9 2 30 3.3 30 5v22c0 1.7-1.3 3-3 3"/><path d="M7 6c-.6 0-1-.4-1-1V1c0-.6.4-1 1-1s1 .4 1 1v4c0 .6-.4 1-1 1M23 6c-.6 0-1-.4-1-1V1c0-.6.4-1 1-1s1 .4 1 1v4c0 .6-.4 1-1 1M10 2h10v2H10zM2 8h26v2H2zM24 12h2v2h-2zM20 12h2v2h-2zM16 12h2v2h-2zM12 12h2v2h-2zM8 12h2v2H8zM24 16h2v2h-2zM20 16h2v2h-2zM16 16h2v2h-2zM12 16h2v2h-2zM8 16h2v2H8zM4 16h2v2H4zM24 20h2v2h-2zM20 20h2v2h-2zM16 20h2v2h-2zM12 20h2v2h-2zM8 20h2v2H8zM4 20h2v2H4zM20 24h2v2h-2zM16 24h2v2h-2zM12 24h2v2h-2zM8 24h2v2H8zM4 24h2v2H4z"/></symbol><symbol id="icon-soc-insta" viewBox="0 0 256 256" preserveAspectRatio="xMidYMid"><path d="M128 23.064c34.177 0 38.225.13 51.722.745 12.48.57 19.258 2.655 23.769 4.408 5.974 2.322 10.238 5.096 14.717 9.575 4.48 4.479 7.253 8.743 9.575 14.717 1.753 4.511 3.838 11.289 4.408 23.768.615 13.498.745 17.546.745 51.723 0 34.178-.13 38.226-.745 51.723-.57 12.48-2.655 19.257-4.408 23.768-2.322 5.974-5.096 10.239-9.575 14.718-4.479 4.479-8.743 7.253-14.717 9.574-4.511 1.753-11.289 3.839-23.769 4.408-13.495.616-17.543.746-51.722.746-34.18 0-38.228-.13-51.723-.746-12.48-.57-19.257-2.655-23.768-4.408-5.974-2.321-10.239-5.095-14.718-9.574-4.479-4.48-7.253-8.744-9.574-14.718-1.753-4.51-3.839-11.288-4.408-23.768-.616-13.497-.746-17.545-.746-51.723 0-34.177.13-38.225.746-51.722.57-12.48 2.655-19.258 4.408-23.769 2.321-5.974 5.095-10.238 9.574-14.717 4.48-4.48 8.744-7.253 14.718-9.575 4.51-1.753 11.288-3.838 23.768-4.408 13.497-.615 17.545-.745 51.723-.745M128 0C93.237 0 88.878.147 75.226.77c-13.625.622-22.93 2.786-31.071 5.95-8.418 3.271-15.556 7.648-22.672 14.764C14.367 28.6 9.991 35.738 6.72 44.155 3.555 52.297 1.392 61.602.77 75.226.147 88.878 0 93.237 0 128c0 34.763.147 39.122.77 52.774.622 13.625 2.785 22.93 5.95 31.071 3.27 8.417 7.647 15.556 14.763 22.672 7.116 7.116 14.254 11.492 22.672 14.763 8.142 3.165 17.446 5.328 31.07 5.95 13.653.623 18.012.77 52.775.77s39.122-.147 52.774-.77c13.624-.622 22.929-2.785 31.07-5.95 8.418-3.27 15.556-7.647 22.672-14.763 7.116-7.116 11.493-14.254 14.764-22.672 3.164-8.142 5.328-17.446 5.95-31.07.623-13.653.77-18.012.77-52.775s-.147-39.122-.77-52.774c-.622-13.624-2.786-22.929-5.95-31.07-3.271-8.418-7.648-15.556-14.764-22.672C227.4 14.368 220.262 9.99 211.845 6.72c-8.142-3.164-17.447-5.328-31.071-5.95C167.122.147 162.763 0 128 0zm0 62.27C91.698 62.27 62.27 91.7 62.27 128c0 36.302 29.428 65.73 65.73 65.73 36.301 0 65.73-29.428 65.73-65.73 0-36.301-29.429-65.73-65.73-65.73zm0 108.397c-23.564 0-42.667-19.103-42.667-42.667S104.436 85.333 128 85.333s42.667 19.103 42.667 42.667-19.103 42.667-42.667 42.667zm83.686-110.994c0 8.484-6.876 15.36-15.36 15.36-8.483 0-15.36-6.876-15.36-15.36 0-8.483 6.877-15.36 15.36-15.36 8.484 0 15.36 6.877 15.36 15.36z"/></symbol><symbol id="icon-soc-vk" viewBox="0 0 25.3 14.4"><path fill-rule="evenodd" clip-rule="evenodd" d="M12.4 14.4h1.5s.5-.1.7-.3c.2-.2.2-.7.2-.7s0-2 .9-2.3c.9-.3 2.1 2 3.4 2.8 1 .7 1.7.5 1.7.5h3.4s1.8-.1.9-1.5c-.1-.1-.5-1-2.5-2.9-2.1-2-1.8-1.6.7-5 1.6-2.1 2.2-3.3 2-3.9C25.1.6 24 .7 24 .7h-3.8s-.3 0-.5.1-.3.4-.3.4-.6 1.6-1.4 3c-1.7 2.9-2.4 3-2.6 2.8-.6-.4-.5-1.7-.5-2.6 0-2.8.4-3.9-.8-4.2-.6-.1-.9-.2-1.9-.2-1.4 0-2.5 0-3.2.3-.4.2-.8.7-.6.7.3 0 .8.2 1.1.6.5.5.4 1.7.4 1.7s.3 3.3-.5 3.7c-.5.3-1.2-.3-2.7-2.9-.8-1.3-1.4-2.8-1.4-2.8S5.2 1 5 .9C4.8.7 4.4.6 4.4.6H.8S.3.6.1.9c-.2.2 0 .6 0 .6s2.8 6.6 6 10c2.9 3.1 6.3 2.9 6.3 2.9z"/></symbol><symbol id="icon-speed" viewBox="-16 -23.2 48 48"><path d="M32 .8c0-13.2-10.8-24-24-24s-24 10.8-24 24c0 7.4 3.4 14 8.7 18.4v.1c4.2 3.4 9.5 5.5 15.3 5.5s11.1-2.1 15.3-5.5C28.6 14.8 32 8.2 32 .8zm-46 0c0-12.1 9.9-22 22-22s22 9.9 22 22C30 7.2 27.2 13 22.9 17 19.3 12.5 13.8 9.8 8 9.8S-3.3 12.5-6.9 17C-11.2 13-14 7.2-14 .8zm8.7 17.5c3.2-4.1 8.1-6.5 13.3-6.5s10.1 2.4 13.3 6.5C17.6 21.1 13 22.8 8 22.8s-9.6-1.7-13.3-4.5z"/><path d="M8-15.2c-.6 0-1-.4-1-1v-2c0-.6.4-1 1-1s1 .4 1 1v2c0 .6-.4 1-1 1zM-.6-13c-.3 0-.7-.2-.9-.5l-1-1.7c-.3-.5-.1-1.1.4-1.4.5-.3 1.1-.1 1.4.4l1 1.7c.3.5.1 1.1-.4 1.4-.2 0-.3.1-.5.1zM-7-6.9c-.2 0-.3 0-.5-.1l-1.7-1c-.5-.3-.6-.9-.4-1.4s.9-.6 1.4-.4l1.7 1c.5.3.6.9.4 1.4-.2.4-.5.5-.9.5zM-9 1.8h-2c-.6 0-1-.4-1-1s.4-1 1-1h2c.6 0 1 .4 1 1s-.4 1-1 1zM27 1.8h-2c-.6 0-1-.4-1-1s.4-1 1-1h2c.6 0 1 .4 1 1s-.4 1-1 1zM22.6-6.8c-.3 0-.7-.2-.9-.5-.3-.5-.1-1.1.4-1.4l1.7-1c.5-.3 1.1-.1 1.4.4.3.5.1 1.1-.4 1.4l-1.7 1c-.1 0-.3.1-.5.1zM16.3-13.1c-.2 0-.3 0-.5-.1-.5-.3-.6-.9-.4-1.4l1-1.7c.3-.5.9-.6 1.4-.4.5.3.6.9.4 1.4l-1 1.7c-.3.3-.6.5-.9.5zM19.3-5.8c-.3-.5-.9-.6-1.4-.4l-7.5 4.3c-.6-.5-1.4-.9-2.3-.9-2 0-3.6 1.6-3.6 3.6s1.6 3.6 3.6 3.6 3.6-1.6 3.6-3.6c0-.4-.1-.7-.2-1l7.4-4.3c.5-.2.7-.8.4-1.3zM8.1 2.5c-.9 0-1.6-.7-1.6-1.6 0-.9.7-1.6 1.6-1.6C9-.7 9.7 0 9.7.9c0 .9-.7 1.6-1.6 1.6z"/></symbol><symbol id="icon-speedometer" viewBox="0 0 336 258.9"><path d="M196.6 95.1c-1.4-.6-3-.1-3.8 1.1L151.2 159c-5.1 2.1-9.4 6.2-11.8 11.7-4.9 11.3.2 24.5 11.6 29.4 11.3 4.9 24.5-.2 29.4-11.6 2.4-5.5 2.4-11.4.5-16.6l17.6-73.2c.3-1.5-.5-3-1.9-3.6zm0 0M205.9 46l-.7-.2c-8-2.6-15.2-4.3-21.9-5.2-5.6-.8-11.3-1.1-17.2-1.1-2 0-4 .1-6 .1-5.8.2-11.6 1-17.5 2.2-4.3.9-8 1.9-11.4 3-2.6.8-5 1.7-7.9 2.8-.7.3-1.3.8-1.6 1.4-.3.7-.3 1.4-.1 2.1l5.1 13.8c.3.7.8 1.3 1.5 1.6 1 .5 2.6-.1 2.9-.2 3.8-1.2 6.9-2.1 9.8-2.7 4.3-.9 7.8-1.5 10.9-1.8 2.3-.2 4.8-.4 7.8-.5.8 0 1.6-.1 2.5-.1 2 0 4 .1 6.2.2 3.4.2 7.1.6 11.4 1.4 5.6 1 11.3 2.6 18.5 5.3.3.1.6.2 1 .2s.8-.1 1.2-.3c.7-.3 1.2-.9 1.4-1.6l5.8-16.6c.2-.7.2-1.5-.1-2.1-.3-1-.8-1.5-1.6-1.7zm0 0M96.1 66c-.5-.6-1.2-.9-1.9-1-.8-.1-1.5.2-2.1.6-3.6 3.1-8.4 7.2-12.7 12-4.7 5.2-9 10.8-12.8 16.7-4.6 7.2-8.2 14.5-10.7 21.7-1.1 3-2.4 7-3.5 11.1-.7 2.9-1.3 5.8-1.8 8.2-.1.7 0 1.5.4 2.1.4.6 1.1 1.1 1.8 1.2l10.1 2c.2 0 .4.1.5.1 2.2 0 2.6-1.6 3.1-3.7.3-.9.6-2.1.9-3.2.3-1.1.5-2.1.6-2.3 2-6.9 5-13.8 8.8-20.5 3.4-6.1 7.7-12 13-17.9 4.7-5.2 10.1-9.6 14.2-12.9.6-.5 1-1.1 1.1-1.9.1-.8-.1-1.5-.6-2.1L96.1 66zm0 0M284 168.2l-22.8-2.4c-1.4-.2-2.8.8-3 2.2l-1.2 6.4c-.6 2.8-1.3 5.5-2.1 8.4-.3.9-.5 1.8-.8 2.7-1.4 5.1-5.2 13.5-8.1 18.1-.4.7-.6 1.5-.4 2.2.2.8.7 1.4 1.4 1.8l22 11.5c.4.2.8.3 1.3.3.3 0 .6 0 .9-.1.7-.2 1.3-.7 1.6-1.4l1.9-3.8c3.3-6.5 5.9-13.7 8.2-22 2.1-7.6 3.1-15.1 3.7-20.8.1-.7-.1-1.5-.6-2.1-.6-.5-1.3-.9-2-1zm0 0M255.4 131.7c.6 2.5 1.2 5.1 1.8 8.2.1.7.6 1.4 1.2 1.8.4.3 1 .4 1.5.4.2 0 .4 0 .6-.1l21.3-4.8c.7-.2 1.4-.6 1.8-1.3.4-.6.5-1.4.3-2.1-1.8-7.1-3.6-13-5.7-18.4-2.6-6.6-6-13.2-10.3-20.1-1.8-3-4-6.1-6.8-9.7-2.5-3.3-5.1-6.3-7.7-9-2.2-2.3-5.2-5.3-8.5-8.1-2.3-1.9-4.6-3.8-6.6-5.4-.6-.4-1.3-.7-2.1-.6-.7.1-1.4.5-1.9 1.1l-11.6 14.9c-.9 1.2-.7 2.9.4 3.8 0 0 2.1 1.8 3.1 2.7 2.4 2.1 4.9 4.6 7.5 7.5 3 3.3 5.2 6.1 7 8.7 4.7 6.8 8.2 13.2 10.8 19.8 2 4.3 3.1 7.6 3.9 10.7zm0 0M74.2 205.2c-.8-1.7-1.6-3.3-2.3-4.9-1.3-3.1-2.6-6.5-4-10.9-2.2-7-3.2-14.3-3.9-20.5-.1-.7-.5-1.4-1-1.9-.6-.5-1.3-.7-2.1-.6l-9 1.2c-.7.1-1.4.5-1.9 1.1-.4.6-.6 1.4-.5 2.1l.2 1.2c1.3 8.9 3.1 16.1 5.4 22.5 1.2 3.3 2.7 7.2 4.5 11 1.2 2.5 2.6 5.2 4.4 8.5.4.7 1 1.2 1.7 1.4.3.1.5.1.8.1.5 0 .9-.1 1.4-.4l6.5-3.6c1.3-.7 1.8-2.4 1.1-3.7l-1.3-2.6zm0 0"/><path d="M286.9 50.3C255.1 17.8 212.9 0 168 0S80.9 17.9 49.1 50.3C17.4 82.6 0 125.6 0 171.4c0 28.9 7.2 57.6 20.9 82.8 1.6 2.9 4.6 4.7 7.9 4.7h278.4c3.3 0 6.3-1.8 7.9-4.7 13.7-25.2 20.9-53.8 20.9-82.8 0-45.8-17.4-88.8-49.1-121.1zm14.8 190.5H34.3C23.6 219.4 18 195.5 18 171.4 18 86.8 85.3 18 168 18s150 68.8 150 153.4c0 24.1-5.6 48-16.3 69.4zm0 0"/></symbol><symbol id="icon-star" viewBox="0 0 34.1 32"><path d="M27.1 31.938c.6-.1 1-.6.9-1.2v-.1l-1.7-10.2 7.5-7.3c.4-.4.4-1.1 0-1.5-.2-.2-.4-.3-.6-.3l-10.4-1.6-4.7-9.3c-.3-.5-.9-.7-1.4-.5-.2.1-.4.3-.5.5l-4.7 9.3-10.4 1.6c-.6.1-1 .6-.9 1.2 0 .2.1.4.3.6l7.5 7.3-1.7 10.2c-.1.6.3 1.1.9 1.2.2 0 .5 0 .7-.1l9.4-4.8 9.4 4.8c-.1.2.1.2.4.2zm-1.6-2.9l-8-4.1c-.3-.2-.7-.2-1 0l-8 4.1 1.5-8.7c.1-.3-.1-.7-.3-.9l-6.4-6.2 8.9-1.3c.3-.1.6-.3.8-.6l4-7.9 4 7.9c.2.3.5.5.8.6l8.9 1.3-6.4 6.2c-.3.2-.4.6-.3.9l1.5 8.7z"/></symbol><symbol id="icon-tel" viewBox="0 0.7 16 15.6"><path d="M.8.7h3.7s.4-.1.7 1.2c.4 1.4.8 2.7.8 2.7s.3.3-.2 1-1.4 1.6-1.4 1.6 1.2 2.2 2.7 3.3 2.5 1.7 2.5 1.7l1.5-1.5s.3-.5 1.1-.3 2.9.6 3 .6c.1 0 .7.1.7.8v3.1s0 1.1-.8 1.2c-.7.1-3.6-.1-6.5-1.5C5.2 13 3 10.1 2.3 9.1 1.7 8.1.3 5 .1 3.5S0 1.7 0 1.7s0-.8.8-1z"/></symbol><symbol id="icon-view" viewBox="0 0 18 10"><path d="M9 3c1.141 0 2 .86 2 2 0 1.141-.859 2-2 2-1.14 0-2-.859-2-2 0-1.14.86-2 2-2m0-1C7.3 2 6 3.3 6 5s1.3 3 3 3 3-1.3 3-3-1.3-3-3-3z"/><path d="M9 1c4.277 0 6.668 2.402 7.75 3.917C15.33 6.552 13.019 9 9 9 5.142 9 2.546 6.576 1.289 5.039 2.711 3.403 5.017 1 9 1m0-1C4 0 1.4 3.4 0 5c1 1.4 4 5 9 5s7.6-3.4 9-5c-1.2-2-4-5-9-5z"/></symbol><symbol id="icon-visa" viewBox="0 0 108.3 33.2"><path fill="#00589F" d="M38.2 32.7L43.7.6h8.7l-5.5 32.1zM78.8 1.4C77 .7 74.3 0 70.9 0c-8.7 0-14.8 4.4-14.8 10.6 0 4.6 4.4 7.2 7.7 8.7 3.4 1.6 4.6 2.6 4.5 4 0 2.2-2.7 3.1-5.2 3.1-3.5 0-5.4-.5-8.3-1.7l-1.1-.5-1.2 7.2c2 .9 5.8 1.7 9.8 1.7 9.2 0 15.2-4.3 15.3-11 0-3.7-2.3-6.4-7.4-8.7-3.1-1.5-4.9-2.5-4.9-4 0-1.3 1.6-2.8 5-2.8 2.9 0 4.9.6 6.6 1.2l.8.4 1.1-6.8M101.2.6h-6.8c-2.1 0-3.7.6-4.6 2.7l-13 29.5H86l1.8-4.8H99c.3 1.1 1.1 4.8 1.1 4.8h8.1l-7-32.2M90.4 21.3c.7-1.9 3.5-9 3.5-9-.1.1.7-1.9 1.2-3.1l.6 2.8s1.7 7.7 2 9.3h-7.3zM30.8.6l-8.6 21.9-.9-4.5C19.7 12.9 14.7 7.4 9.2 4.6L17 32.7h9.3L40.1.6h-9.3"/><path fill="#F9A51A" d="M14.3.6H.1l-.1.6C11 3.9 18.3 10.3 21.3 18L18.2 3.3c-.5-2.1-2-2.7-3.9-2.7"/></symbol><symbol id="icon-yandex-money" viewBox="0 0 62.9 77.6"><path fill="#FFCE01" d="M9 38.2c0-3.3.3-5.4 7.2-10.6 5.7-4.3 24-18.8 24-18.8v24.3H54V68H13.3C10.9 68 9 66 9 63.7V38.2z"/><path fill="#D2AA07" d="M40.1 33.1v14L14.6 64.5 46.9 54V33.1z"/><path fill="#231F20" d="M28.4 32.3c1.5-1.8 3.7-2.4 4.9-1.4 1.2 1 1 3.3-.5 5-1.5 1.8-3.7 2.4-4.9 1.4-1.2-.9-.9-3.2.5-5"/></symbol></svg>