<svg xmlns="http://www.w3.org/2000/svg" viewBox="0 0 28 27.6"><path fill="#1C4688" d="M5.9 2.7c-1 .7-1.9 1.5-2.6 2.5l2 1.8c.7-.8 1.4-1.5 2.3-2.1L5.9 2.7z"/><path fill="#E12026" d="M2.2 6.7C1.5 7.8 1 9 .6 10.3l2.6.6c.2-.9.7-1.9 1.2-2.7L2.2 6.7z"/><path fill="#C0C0E5" d="M.1 14c0 7.7 6.2 13.5 13.9 13.5S27.9 21.6 27.9 14C27.9 6.3 21.7.1 14 .1c-.4 0-.8 0-1.2.1l.1 2.6h1.2c6.2 0 11.2 5 11.2 11.2 0 6.2-5 10.9-11.2 10.9-6.3 0-11.3-4.7-11.3-10.9 0-.6.1-1.3.2-1.9H.3c-.1.6-.2 1.2-.2 1.9z"/><linearGradient id="a" gradientUnits="userSpaceOnUse" x1=".248" y1="13.814" x2="27.707" y2="13.814"><stop offset="0" stop-color="#d2dcea"/><stop offset=".545" stop-color="#e2e7ee"/><stop offset="1" stop-color="#f2f3f3"/></linearGradient><path fill="url(#a)" d="M14 27.4C6.4 27.4.2 21.6.2 14c0-.6 0-1.2.1-1.8h2.4c-.1.6-.1 1.3-.1 1.8 0 6.3 5.1 11 11.4 11 6.3 0 11.4-4.8 11.4-11 0-6.3-5.1-11.4-11.4-11.4h-1L12.9.3H14C21.6.3 27.7 6.5 27.7 14c0 7.6-6.2 13.4-13.7 13.4z"/><linearGradient id="b" gradientUnits="userSpaceOnUse" x1=".513" y1="13.814" x2="27.444" y2="13.814"><stop offset="0" stop-color="#d2dcea"/><stop offset=".545" stop-color="#e2e7ee"/><stop offset="1" stop-color="#f2f3f3"/></linearGradient><path fill="url(#b)" d="M14 27.1C6.4 27.1.5 21.3.5 14c0-.5 0-1 .1-1.5h1.9c-.1.5-.1 1-.1 1.5 0 6.3 5.1 11.3 11.6 11.3s11.6-5 11.6-11.3c0-6.4-5.2-11.6-11.6-11.6h-.8V.6h.8c7.4 0 13.5 6 13.5 13.5-.1 7.2-6 13-13.5 13z"/><linearGradient id="c" gradientUnits="userSpaceOnUse" x1="16.449" y1="-.905" x2="11.889" y2="26.709"><stop offset="0" stop-color="#f1f3f5"/><stop offset=".105" stop-color="#e1e6ee"/><stop offset=".161" stop-color="#d7ddea"/><stop offset=".172" stop-color="#d8dfeb"/><stop offset=".252" stop-color="#dae7f1"/><stop offset=".379" stop-color="#dbeaf3"/><stop offset=".492" stop-color="#d9e8ef"/><stop offset=".574" stop-color="#d4e3e7"/><stop offset=".615" stop-color="#d1dbe1"/><stop offset=".706" stop-color="#ccd0d8"/><stop offset=".802" stop-color="#cbccd5"/><stop offset="1" stop-color="#cbd0d7"/></linearGradient><path fill="url(#c)" d="M14 26.9C6.5 26.9.7 21.2.7 14c0-.4 0-.9.1-1.3h1.5c-.1.5-.1.9-.1 1.3 0 6.4 5.2 11.5 11.8 11.5 6.6 0 11.8-5 11.8-11.5S20.5 2.2 14 2.2H13.4V.8h.6c7.3 0 13.3 6 13.3 13.3-.1 7.1-5.9 12.8-13.3 12.8z"/><linearGradient id="d" gradientUnits="userSpaceOnUse" x1="22.395" y1="1.706" x2="21.406" y2="7.699"><stop offset="0" stop-color="#e2e7e9"/><stop offset=".209" stop-color="#d8dde1"/><stop offset=".555" stop-color="#ced3d9"/><stop offset="1" stop-color="#cbd0d7"/></linearGradient><path fill="url(#d)" d="M25.8 8.4c.1-.1 0-.5 0-.5-1.6-3.1-4.5-5.5-7.8-6.5v1.5c2.6.8 4.4 2.4 5.9 4.6 0 0 .5.5.9.6.4.1.9.4 1 .3z"/><linearGradient id="e" gradientUnits="userSpaceOnUse" x1="7.321" y1="2.264" x2="11.42" y2="2.264"><stop offset="0" stop-color="#fff"/><stop offset=".016" stop-color="#fbfbfd"/><stop offset=".19" stop-color="#d3d3ed"/><stop offset=".28" stop-color="#c4c4e7"/><stop offset=".336" stop-color="#c8c8e8"/><stop offset=".388" stop-color="#d3d3ed"/><stop offset=".439" stop-color="#e6e5f4"/><stop offset=".472" stop-color="#f7f6fb"/><stop offset=".507" stop-color="#f5f3fa"/><stop offset=".632" stop-color="#f0eef8"/><stop offset=".666" stop-color="#edecf7"/><stop offset=".819" stop-color="#e4e3f3"/><stop offset=".834" stop-color="#e3e2f3"/><stop offset=".978" stop-color="#deddf1"/></linearGradient><path fill="url(#e)" d="M11.4 3L10.8.5c-1.2.3-2.4.7-3.5 1.3L8.7 4c.9-.5 1.6-.8 2.7-1z"/><path fill="#FFF" d="M8.7 3.9l-1.2-2c1-.5 2.1-1 3.2-1.2l.5 2.2c-.9.2-1.6.5-2.5 1z"/><radialGradient id="f" cx="262.572" cy="-178.08" r="4.055" gradientTransform="rotate(21.963 -331.31 -741.122)" gradientUnits="userSpaceOnUse"><stop offset="0" stop-color="#fff"/><stop offset=".912" stop-color="#b0b0b0"/><stop offset="1" stop-color="#a8a8a8"/></radialGradient><path fill="url(#f)" d="M8.9 2.8l-1.4-.9c1-.5 2.1-1 3.2-1.2l-.4 1.6-1.4.5z"/><path fill="#FFFFFE" d="M8.9 2.6l-1.4-.7c.9-.5 2-1 3.2-1.2l-.5 1.4-1.3.5z"/><radialGradient id="g" cx="-319.964" cy="91.172" r="1.909" gradientTransform="rotate(-23.263 -361.135 -731.197)" gradientUnits="userSpaceOnUse"><stop offset="0" stop-color="#fff"/><stop offset="1" stop-color="#ec5355"/></radialGradient><path fill="url(#g)" d="M2.5 9.8l-1.7.4C1.2 9.1 1.6 8 2.2 7l.9 1.4-.6 1.4z"/><radialGradient id="h" cx="-319.044" cy="92.651" r="2.826" gradientTransform="rotate(-23.263 -361.135 -731.197)" gradientUnits="userSpaceOnUse"><stop offset=".363" stop-color="#fff"/><stop offset="1" stop-color="#dd0031"/></radialGradient><path fill="url(#h)" d="M2.4 9.7l-1.4.4c.3-1 .7-1.9 1.2-2.8L3 8.4l-.6 1.3z"/><linearGradient id="i" gradientUnits="userSpaceOnUse" x1="-319.474" y1="92.638" x2="-320.266" y2="91.373" gradientTransform="rotate(-23.263 -361.135 -731.197)"><stop offset="0" stop-color="#fff"/><stop offset="1" stop-color="#dd0031"/></linearGradient><path fill="url(#i)" d="M2.4 9.7l-1.3.3c.3-.9.7-1.8 1.1-2.6l.6 1.1-.4 1.2z"/><linearGradient id="j" gradientUnits="userSpaceOnUse" x1="1.477" y1="14.832" x2="1.477" y2="13.085"><stop offset="0" stop-color="#c7cddf"/><stop offset=".264" stop-color="#cbd1e1"/><stop offset=".535" stop-color="#d7dce8"/><stop offset=".808" stop-color="#eceef4"/><stop offset="1" stop-color="#fff"/></linearGradient><path fill="url(#j)" d="M2.2 14c0-.4 0-.9.1-1.3H.8c0 .4-.1.9-.1 1.3 0 0 .3.5.5.5s.6 0 .6-.2c.1-.1.4-.3.4-.3z"/><path fill="#A8A8A8" d="M3.1 5.2c.9-1 1.8-1.9 2.8-2.6l.1-.1 1.7 2.3-.2.1C6.7 5.5 6 6.2 5.3 7l-.1.1-2.1-1.9zm2.1 1.6c.6-.8 1.3-1.4 2.1-2L5.9 2.9c-.9.6-1.7 1.4-2.5 2.3l1.8 1.6zm.6-4zM.5 10.4v-.1c.3-1.3.9-2.5 1.6-3.7l.1-.1 2.4 1.6-.1.2C4 9 3.6 10 3.3 10.9v.1l-2.8-.6zm2.6.3c.3-.8.7-1.7 1.1-2.5l-2-1.4c-.6 1-1.1 2.2-1.5 3.4l2.4.5zm-1-3.9z"/><path fill="#666" d="M0 14c0-.7 0-1.3.1-1.9V12H3v.1c-.1.6-.2 1.3-.2 1.9 0 6.1 5 10.8 11.1 10.8S25 20.1 25 14c0-6.1-5-11.1-11.1-11.1h-1.3V.1h.1c.4-.1.9-.1 1.3-.1 7.7 0 14 6.3 14 14s-6.3 13.6-14 13.6S0 21.7 0 14zm14 13.4c7.6 0 13.7-5.8 13.7-13.4C27.7 6.4 21.5.3 14 .3h-1.1v2.3H14c6.3 0 11.3 5.1 11.3 11.3 0 6.3-5.1 11-11.3 11C7.7 25 2.7 20.2 2.6 14c0-.6.1-1.2.1-1.8H.3c-.1.6-.1 1.2-.1 1.8 0 7.6 6.2 13.4 13.8 13.4z"/><path fill="#A8A8A8" d="M7.2 1.8l.1-.1C8.4 1.1 9.6.6 10.8.3h.1l.5 2.6h-.1.1V3h-.1c-1.1.2-1.7.5-2.6 1v.1L7.2 1.8zm1.5 2c.9-.5 1.5-.7 2.5-1L10.7.5c-1.1.4-2.2.8-3.2 1.4l1.2 1.9z"/><radialGradient id="k" cx="5.014" cy="4.431" r=".72" gradientUnits="userSpaceOnUse"><stop offset=".043" stop-color="#fff"/><stop offset=".145" stop-color="#cdd6e4"/><stop offset=".27" stop-color="#97aac6"/><stop offset=".396" stop-color="#6983ad"/><stop offset=".521" stop-color="#436498"/><stop offset=".645" stop-color="#264c88"/><stop offset=".766" stop-color="#113b7c"/><stop offset=".886" stop-color="#043075"/><stop offset="1" stop-color="#002d73"/></radialGradient><path fill="url(#k)" d="M5.1 5.4l-1.4-.3c.6-.7 1.3-1.4 2.1-2L6 4.5l-.9.9z"/><linearGradient id="l" gradientUnits="userSpaceOnUse" x1="4.885" y1="4.289" x2="5.275" y2="4.893"><stop offset="0" stop-color="#fff"/><stop offset=".1" stop-color="#f9fbfc"/><stop offset=".229" stop-color="#e9eff5"/><stop offset=".373" stop-color="#cfdbe8"/><stop offset=".528" stop-color="#aac0d6"/><stop offset=".693" stop-color="#7b9dbf"/><stop offset=".863" stop-color="#4272a4"/><stop offset="1" stop-color="#0e4c8b"/></linearGradient><path fill="url(#l)" d="M5.1 5.3l-1.3-.2c.6-.7 1.2-1.3 2-1.8L6 4.4l-.9.9z"/><radialGradient id="m" cx="-320.05" cy="91.655" r="1.05" gradientTransform="rotate(-23.263 -361.135 -731.197)" gradientUnits="userSpaceOnUse"><stop offset="0" stop-color="#fff"/><stop offset="1" stop-color="#e12026"/></radialGradient><path fill="url(#m)" d="M2.5 9.8l-1.7.4C1.2 9.1 1.6 8 2.2 7l.9 1.4-.6 1.4z"/><radialGradient id="n" cx="-319.95" cy="91.137" r="1.598" gradientTransform="rotate(-23.263 -361.135 -731.197)" gradientUnits="userSpaceOnUse"><stop offset=".363" stop-color="#fff"/><stop offset="1" stop-color="#e12026"/></radialGradient><path fill="url(#n)" d="M2.4 9.7l-1.4.4c.3-1 .7-1.9 1.2-2.8L3 8.4l-.6 1.3z"/><linearGradient id="o" gradientUnits="userSpaceOnUse" x1="1.752" y1="8.71" x2="2.494" y2="9.213"><stop offset="0" stop-color="#fff"/><stop offset="1" stop-color="#e12026"/></linearGradient><path fill="url(#o)" d="M2.4 9.7l-1.3.3c.3-.9.7-1.8 1.1-2.6l.6 1.1-.4 1.2z"/><path fill="#FFF" d="M16.5 21.5c-2 0-3.6-.3-5.4-2.8-1.8-2.5 0 0 0 0s-1.8-2.5-3-4.3c-.8-1.2-1.4-1.9-.9-2.4.4-.2.9-.1 1.1.2 0 0 .1.1.1.2.1.2.5.4.7.7l.1.1c.4.5.7.9 1.2 1.5l.1.1c1 1.3 1.8 2.3 1.8 2.3 1.2 1.4 2.7 2 3.3 2.1 1.6.2 2.4-.5 2.8-.8.6-.4 1.2-1.5 1.2-2.6 0-1.2-.3-2.1-1.2-3.3l-2.9-4.1c-.3-.3-.2-.9.1-1.1.3-.3.9-.2 1.1.1l2.8 3.8c1.1 1.5 2.1 3.1 2.1 4.7 0 1.5-.7 3-2 4-.8.9-2 1.6-3.1 1.6z"/><linearGradient id="p" gradientUnits="userSpaceOnUse" x1="25.034" y1="15.049" x2="26.559" y2="17.69" gradientTransform="rotate(.596 -289.623 -753.936)"><stop offset="0" stop-color="#d1d7e0"/><stop offset=".365" stop-color="#eaeaeb"/><stop offset=".607" stop-color="#e6e6ea"/><stop offset=".787" stop-color="#d8dbe0"/><stop offset=".896" stop-color="#e6e5e7"/><stop offset="1" stop-color="#fff"/></linearGradient><path fill="url(#p)" d="M16.3 21.2c-1.2 0-3.2-.5-4.9-2.7-.1-.1-1.8-2.4-2.9-4.1-.2-.3-.5-.8-.7-1-.5-.6-.4-.9-.3-1 .1 0 .1-.1.2-.1.2 0 .3.1.4.2l.2.1v.2l.4.2.3.4c.4.5.8 1.1 1.4 1.7 0 0 1.8 2.4 1.8 2.5 1.1 1.4 2.8 2.1 3.5 2.2h.5c1.3 0 2-.5 2.4-.8l.1-.1c.6-.5 1.3-1.6 1.4-2.9 0-1.3-.5-2.2-1.3-3.5l-2.9-4.1c-.1-.1-.1-.2-.1-.4 0-.1.1-.2.2-.3.1-.1.2-.1.3-.1.1 0 .3.1.4.2l3 3.7c1.1 1.4 1.8 3.1 1.8 4.6 0 1.4-.7 2.8-1.8 3.8-.8.4-2.2 1.3-3.4 1.3z"/><path fill="#FFF" d="M11 14.2L5.6 6.6c-.3-.3-.2-.9.2-1.1.4-.3.9-.2 1.1.2l5.4 7.6c.3.4.2.9-.2 1.1-.2.1-.3.2-.5.1-.2.1-.5-.1-.6-.3z"/><linearGradient id="q" gradientUnits="userSpaceOnUse" x1="16.676" y1="6.108" x2="19.831" y2="17.888" gradientTransform="rotate(.596 -289.623 -753.936)"><stop offset="0" stop-color="#edf6fc"/><stop offset=".198" stop-color="#e1e5e8"/><stop offset=".246" stop-color="#dde0e2"/><stop offset=".259" stop-color="#dee2e5"/><stop offset=".344" stop-color="#e4edf3"/><stop offset=".45" stop-color="#e7f4fb"/><stop offset=".64" stop-color="#e8f6fd"/><stop offset=".665" stop-color="#e1edf3"/><stop offset=".747" stop-color="#ced5d8"/><stop offset=".829" stop-color="#c0c3c4"/><stop offset=".913" stop-color="#b8b8b9"/><stop offset="1" stop-color="#b5b5b5"/><stop offset="1" stop-color="#fff"/></linearGradient><path fill="url(#q)" d="M11.6 14.2c-.2 0-.3-.1-.4-.2L5.8 6.4c0-.1-.1-.2 0-.3 0-.1.1-.2.2-.3 0-.1.1-.1.2-.1.2 0 .3.1.4.2l5.4 7.6c.2.2.1.5-.1.7h-.3z"/><path fill="#FFF" d="M13.5 13.8l-4-5.7c-.3-.3-.2-.8.2-1.1.4-.3.9-.2 1.1.2l4 5.7c.3.4.2.9-.2 1.1-.2.1-.3.2-.5.1-.2.1-.4-.1-.6-.3z"/><linearGradient id="r" gradientUnits="userSpaceOnUse" x1="19.141" y1="3.786" x2="22.154" y2="14.716" gradientTransform="rotate(.596 -289.623 -753.936)"><stop offset="0" stop-color="#ebf7fd"/><stop offset=".188" stop-color="#e8f4fa"/><stop offset=".352" stop-color="#dfe9f2"/><stop offset=".446" stop-color="#d6dfea"/><stop offset=".49" stop-color="#e1eaf3"/><stop offset=".559" stop-color="#ecf5fa"/><stop offset=".64" stop-color="#eff8fd"/><stop offset=".724" stop-color="#dae0e3"/><stop offset=".829" stop-color="#c6c8ca"/><stop offset=".924" stop-color="#b9baba"/><stop offset="1" stop-color="#b5b5b5"/><stop offset="1" stop-color="#fff"/></linearGradient><path fill="url(#r)" d="M14.2 13.8c-.2 0-.3-.1-.4-.2l-4-5.7c-.1-.1-.1-.2-.1-.3 0-.1.1-.2.2-.3.1-.1.2-.1.3-.1.2 0 .3.1.4.2l4 5.7c.2.2.1.5-.1.7h-.3z"/><path fill="#FFF" d="M15.8 13l-3.5-5c-.3-.4-.2-.9.2-1.1.4-.3.9-.2 1.1.2l3.6 5.1c.3.4.2.9-.2 1.1-.2.1-.3.2-.5.1-.3 0-.5-.2-.7-.4z"/><linearGradient id="s" gradientUnits="userSpaceOnUse" x1="22.701" y1="5.663" x2="22.448" y2="11.937" gradientTransform="rotate(.596 -289.623 -753.936)"><stop offset="0" stop-color="#ebf7fd"/><stop offset=".519" stop-color="#dbdde7"/><stop offset=".554" stop-color="#e5eaf2"/><stop offset=".602" stop-color="#edf5fa"/><stop offset=".658" stop-color="#eff8fd"/><stop offset=".738" stop-color="#dae0e3"/><stop offset=".837" stop-color="#c6c8ca"/><stop offset=".928" stop-color="#b9baba"/><stop offset="1" stop-color="#b5b5b5"/><stop offset="1" stop-color="#fff"/></linearGradient><path fill="url(#s)" d="M16.5 13c-.2 0-.3-.1-.4-.2l-3.5-5.1c-.2-.2-.1-.5.1-.7h.3c.2 0 .3.1.4.2l3.5 5.1c.2.2.1.5-.1.7h-.3z"/><linearGradient id="t" gradientUnits="userSpaceOnUse" x1="16.878" y1="10.735" x2="14.725" y2="7.481" gradientTransform="rotate(.596 -289.623 -753.936)"><stop offset="0" stop-color="#fff7f5"/><stop offset=".497" stop-color="#f9fcff"/><stop offset=".608" stop-color="#f2f5f8"/><stop offset=".769" stop-color="#dee1e6"/><stop offset=".81" stop-color="#d8dbe0"/><stop offset=".896" stop-color="#e6e5e7"/><stop offset="1" stop-color="#fff"/></linearGradient><path fill="url(#t)" d="M8.9 13.5c-.3-.3-1.3-.8-1.3-.8-.5-.6-.3-.4-.2-.5.1 0 .1-.1.2-.1.2 0 .3.1.5.2 0 0 .1.1.2.1l.1.2.3.4.3.3c.5.7.4.5.8.9-.1 0-.6-.4-.9-.7z"/><path fill="#666" d="M11 18.7c-.9-1.2-1.6-2.5-2.8-4.2-.6-.9-1.2-1.6-1.2-2.1 0-.2.1-.3.2-.4.1-.1.2-.1.4-.1.4 0 .8.2 1.2.6.3.2.9.9.9.9.6.7 1 1.4 1 1.4 1 1.4 1.9 2.5 1.9 2.5 1.1 1.4 2.7 2 3.2 2h.5c1.2 0 1.9-.6 2.2-.8.5-.4 1.2-1.4 1.2-2.5s-.5-1.9-1.2-3.1l-2.9-4.1c-.1-.2-.2-.4-.2-.6 0-.3.1-.5.3-.7.2-.1.3-.2.5-.2.3 0 .7.2 1 .5l2.8 3.9c1.2 1.6 1.9 2.8 1.9 4.5 0 1.6-.8 3.1-2 4.1-.9.7-2.1 1.4-3.3 1.4h-.5c-1.6-.1-3.8-1.1-5.1-3zm5.5 2.8v-.1c1.1 0 2.3-.7 3.2-1.4 1.2-1 1.9-2.4 1.9-3.9s-.7-2.8-1.9-4.3l-2.8-3.9c-.2-.3-.5-.4-.8-.4-.2 0-.3 0-.4.1-.2.1-.3.3-.3.5s.1.3.2.4l2.9 4.1c.7 1.2 1.2 2.1 1.2 3.3 0 1.2-.7 2.3-1.3 2.7-.3.2-1.1.9-2.4.9h-.5c-.6-.1-2.2-.7-3.4-2.1 0 0-.8-1.1-1.9-2.5l-1-1.4s-.6-.7-.8-.9c-.4-.3-.8-.5-1.1-.5-.1 0-.2 0-.2.1-.1.1-.1.1-.1.2 0 .4.5 1.1 1.2 2 1.2 1.8 1.9 3 2.8 4.2 1.3 1.8 3.4 2.8 4.8 2.8h.5l.2.1z"/><path fill="#666" d="M11.6 14.7c-.3 0-.6-.1-.8-.4l.1-.1.1-.1c.1.2.3.3.5.3.1 0 .3 0 .4-.1.2-.1.3-.4.3-.6 0-.1 0-.3-.1-.4L6.8 5.7c-.1-.1-.4-.3-.6-.3-.1 0-.3 0-.4.1-.2.2-.3.4-.3.6 0 .1 0 .3.1.4l5.4 7.6v.1l-.1.1-5.4-7.6c-.1-.2-.2-.4-.2-.6 0-.3.1-.6.4-.8.2 0 .3-.1.5-.1.3 0 .6.1.8.4l5.4 7.6c.1.2.2.4.2.5 0 .3-.1.6-.4.8-.2.1-.4.2-.6.2zM14.2 14.3c-.3 0-.5-.1-.7-.4l.1-.1-.1.1-4-5.7c-.2-.2-.3-.3-.3-.5 0-.3.1-.6.4-.8.2-.1.4-.2.5-.2.3 0 .6.1.8.4l4 5.7c.1.2.2.4.2.5 0 .3-.1.6-.4.8-.1.1-.3.2-.5.2zm0-.2c.1 0 .3 0 .4-.1.2-.1.3-.4.3-.6 0-.1 0-.3-.1-.4l-4-5.7c-.2-.2-.4-.3-.6-.3-.2 0-.3 0-.4.1-.2.1-.3.3-.3.6 0 .1 0 .3.1.4l4 5.7c.2.1.4.3.6.3zM16.5 13.5c-.3 0-.5-.1-.7-.4l.1-.1-.1.1L12.2 8c-.1-.1-.2-.3-.2-.5 0-.3.1-.6.4-.8.2-.1.4-.2.5-.2.3 0 .6.1.8.4l3.5 5.1c.1.2.2.4.2.5 0 .3-.1.6-.4.8-.1.1-.3.2-.5.2zm0-.3c.2 0 .3 0 .4-.1.2-.1.3-.4.3-.6 0-.1 0-.3-.1-.4L13.6 7c-.1-.2-.4-.3-.6-.3-.1 0-.3 0-.4.1-.2.1-.3.4-.3.6 0 .1 0 .3.1.4l3.6 5.1c.1.2.3.3.5.3z"/></svg>