<svg xmlns="http://www.w3.org/2000/svg" viewBox="-39 -9.2 30 28"><path d="M-19.2-9.162c-.1 0-.3.1-.4.2l-1.8 1.8h-15.1-.1c-1.3.1-2.4 1.2-2.4 2.5v1.5h4v19.5c0 1.4 1.1 2.5 2.5 2.5h19c1.4 0 2.5-1.1 2.5-2.5v-1.5h-4v-1h3.5c.3 0 .5-.2.5-.5v-11.5h1.5c.3 0 .5-.2.5-.5 0-.1-.1-.3-.1-.3l-1.9-1.9v-4.3c0-.3-.2-.5-.5-.5h-2c-.3 0-.5.2-.5.5v1.3l-4.9-5c-.1-.2-.2-.3-.3-.3zm0 1.2l8.5 8.8h-17.1l8.6-8.8zm-17.3 1.8c.8 0 1.5.7 1.5 1.5v.5h-3v-.5c0-.8.7-1.5 1.5-1.5zm2 0h12.2l-7 7.2c-.2.2-.2.5 0 .7.1.1.2.1.3.1h1.9v11.5c0 .3.2.5.5.5H-16v1h-15v1.5c0 .8-.7 1.5-1.5 1.5s-1.5-.7-1.5-1.5v-21c0-.6-.2-1.1-.5-1.5zm21.5 1.4h1v2.8l-1-1v-1.8zm-16 .6v1h3v-1h-3zm-3 3v1h3v-1h-3zm0 2v1h2v-1h-2zm6 1h14v11h-4.5v-7c0-.3-.2-.5-.5-.5h-4c-.3 0-.5.2-.5.5v7H-26v-11zm-6 1v1h4v-1h-4zm0 2v1h4v-1h-4zm11.5 1.5h3v6.5h-3v-6.5zm-11.5.5v1h4v-1h-4zm0 2v1h4v-1h-4zm2 7h18v.5c0 .8-.7 1.5-1.5 1.5h-17c.3-.4.5-.9.5-1.5v-.5z"/></svg>