<svg xmlns="http://www.w3.org/2000/svg" viewBox="70.5 3 39 39.5"><path fill="transparent" stroke="#FFF" stroke-miterlimit="10" stroke-width="5" d="M71 38V14h38v24c0 2.2-1.8 4-4 4H75c-2.2 0-4-1.8-4-4"/><path fill="transparent" stroke="#FFF" stroke-miterlimit="10" stroke-width="5" d="M109 10v6H71v-6c0-2.2 1.8-4 4-4h30c2.2 0 4 1.8 4 4"/><g fill="transparent"><path d="M102 10c0 1.7-1.3 3-3 3s-3-1.3-3-3 1.3-3 3-3 3 1.3 3 3M84 10c0 1.7-1.3 3-3 3s-3-1.3-3-3 1.3-3 3-3 3 1.3 3 3"/></g><g fill="#FFF"><path d="M99 3c-1.1 0-2 .9-2 2v5c0 1.1.9 2 2 2s2-.9 2-2V5c0-1.1-.9-2-2-2M81 3c-1.1 0-2 .9-2 2v5c0 1.1.9 2 2 2s2-.9 2-2V5c0-1.1-.9-2-2-2"/></g><path fill="#fff" d="M99.638 33.514h-2.25V22.889c0-.313-.1-.525-.288-.6-.125-.075-.387-.1-.737-.1v-1.1h2.175c.737 0 1.1.312 1.1.962v11.463zm0 0h-2.25 2.25M95.9 28.014c0-1.913-1.488-2.75-3.612-2.75-1.263 0-2.463.212-3.375.425l.412 1.8a15.846 15.846 0 0 1 2.962-.313c1.263 0 1.488.213 1.488 1.05v.213h-1.887c-1.538 0-3.163.7-3.163 2.537 0 2.463 2.538 2.775 3.563 2.775 1.15 0 3.612-.425 3.612-.425v-5.312zm-2.125 3.725c-.525.075-1 .1-1.488.1-.624 0-1.487-.05-1.487-.738 0-.7.675-.737 1.488-.737h1.487v1.375M85.763 24.176l1.862.213.338-3.275c-.888-.263-2.325-.425-3.513-.425-4.525 0-5.912 1.937-5.912 5.237v2.563c0 3.325 1.312 5.262 5.912 5.262 1.2 0 2.663-.187 3.538-.45l-.238-1.812c-1.225.212-2.3.312-3.275.312-2.7 0-3.663-.762-3.663-3.212v-2.725c0-2.463.963-3.213 3.663-3.213.362 0 .738 0 1.125.025l.163 1.5M103.563 33.514h-2.226V22.889c0-.313-.124-.525-.312-.6-.125-.075-.388-.1-.738-.1v-1.1h2.176c.737 0 1.1.312 1.1.962v11.463zm0 0h-2.25 2.25M76.85 33.514H74.6v-6.538c0-.287-.1-.5-.287-.6-.138-.05-.388-.1-.763-.1v-1.1h2.2c.713 0 1.1.338 1.1.975v7.363zm0 0h-2.275 2.275M74.6 22.339h2.063v1.8H74.6v-1.8zm2.063 1.8h-2.088 2.087"/><path fill="#ADADAB" d="M106.037 20.689"/></svg>