<svg xmlns="http://www.w3.org/2000/svg" viewBox="0.5 -46.5 86.9 86.7"><path d="M82.2 9.9c-5-5-12.6-6.5-19.2-3.9L49.9-7l21.5-21.5h4.7c.5 0 .9-.2 1.2-.6l6.6-8.7c.4-.6.4-1.4-.1-2l-1.6-1.6-1.6-1.6c-.5-.5-1.4-.6-2-.1l-8.7 6.6c-.4.3-.6.7-.6 1.2v4.7L47.8-9.1 34.7-22.2c2.7-6.6 1.2-14.1-3.9-19.2-4.9-4.9-12.3-6.5-18.8-4-.5.2-.8.6-.9 1.1s0 1 .4 1.4l6.6 6.6c1 1 1.5 2.3 1.5 3.7s-.5 2.7-1.5 3.7-2.3 1.5-3.7 1.5-2.7-.5-3.7-1.5l-6.6-6.6c-.4-.4-.9-.5-1.4-.4-.5.1-.9.5-1.1.9-2.4 6.5-.9 13.9 4 18.8 5 5 12.6 6.5 19.2 3.9l5.9 5.9-.6.6c-.3.3-.4.7-.4 1.1v1.6c0 1.3-1.1 2.4-2.4 2.4h-1.5c-.4 0-.8.2-1.1.4l-18.9 19c-1.2 1.2-1.9 3-1.9 4.7l.1 5.7c.1 4.3 3.5 7.7 7.7 7.7l5.7.1h.1c1.7 0 3.4-.7 4.6-1.9l19.1-19.1c.3-.3.4-.7.4-1.1v-1.5c0-1.3 1.1-2.4 2.4-2.4h1.6c.4 0 .8-.2 1.1-.4l.6-.6 5.9 5.9C50.5 22.4 52 29.9 57.1 35c4.9 4.9 12.3 6.5 18.8 4 .5-.2.8-.6.9-1.1s0-1-.4-1.4l-6.6-6.6c-1-1-1.5-2.3-1.5-3.7s.5-2.7 1.5-3.7 2.3-1.5 3.7-1.5 2.7.5 3.7 1.5l6.6 6.6c.4.4.9.5 1.4.4s.9-.5 1.1-.9c.8-2 1.1-4.1 1.1-6.2 0-4.5-1.8-9.1-5.2-12.5zm-9.9-44.5l7.1-5.3.6.7.7.7-5.3 7.1h-3.1v-3.2zM26.4-15.3c-.4-.4-1.1-.6-1.7-.3-5.6 2.7-12.4 1.5-16.8-2.9-3.5-3.5-5-8.5-4-13.3L8.7-27c3.2 3.2 8.4 3.2 11.6 0s3.2-8.4 0-11.6l-4.8-4.8c4.8-.9 9.8.5 13.3 4 4.4 4.4 5.6 11.1 2.9 16.8-.3.6-.2 1.3.3 1.7L45.8-7.1l-3.2 3.2-6.1-6.1c-.3-.3-.7-.4-1.1-.4s-.8.2-1.1.4L33-8.7l-6.6-6.6zM45.2 7.8l-1.1.1c-3 0-5.4 2.4-5.4 5.4v.9L20 32.9c-.7.7-1.6 1.1-2.6 1l-5.7-.1c-2.6 0-4.7-2.1-4.8-4.8l-.1-5.7c0-1 .4-1.9 1-2.6L26.5 2h.9c3 0 5.4-2.4 5.4-5.4v-1l.1-.1L35-6.6 47.2 5.6l-2 2.2zm38.9 17.5l-4.8-4.8c-3.2-3.2-8.4-3.2-11.6 0s-3.2 8.4 0 11.6l4.8 4.8c-4.8.9-9.8-.5-13.3-4-4.4-4.4-5.5-11.1-2.9-16.8.3-.6.2-1.3-.3-1.7l-6.5-6.6 1.2-1.2c.3-.3.4-.7.4-1.1s-.2-.8-.4-1.1l-6.1-6.1 3.2-3.2L61.6 8.9c.4.4 1.1.6 1.7.3 5.6-2.7 12.4-1.5 16.8 2.9 3.5 3.5 5 8.5 4 13.2z"/><path d="M30 6.2c-.6-.6-1.5-.6-2.1 0L11.1 23c-.6.6-.6 1.5 0 2.1.3.3.7.4 1.1.4s.8-.1 1.1-.4L30 8.4c.6-.6.6-1.6 0-2.2zM32.4 10.8L15.7 27.6c-.6.6-.6 1.5 0 2.1.3.3.7.4 1.1.4s.8-.1 1.1-.4l16.8-16.8c.6-.6.6-1.5 0-2.1s-1.7-.6-2.3 0z"/></svg>