<svg xmlns="http://www.w3.org/2000/svg" viewBox="0 0 399.3 391.4"><path d="M0 195.8c0 7.6 6.2 13.8 13.8 13.8h262.1l-51.1 51c-5.4 5.4-5.4 14.1 0 19.4 2.6 2.6 6.2 4 9.7 4 3.5 0 7-1.4 9.7-4l74.5-74.5c5.4-5.4 5.4-14.1 0-19.4l-74.5-74.5c-5.4-5.4-14.1-5.4-19.4 0-5.4 5.4-5.4 14.1 0 19.4l51 51h-262c-7.6.1-13.8 6.2-13.8 13.8zm0 0"/><path d="M317.1 391.4c45.4 0 82.2-36.9 82.2-82.2v-227c0-45.4-36.9-82.2-82.2-82.2h-227C44.8 0 8 36.9 8 82.2v46.6c0 7.6 6.2 13.7 13.7 13.7 7.6 0 13.8-6.2 13.8-13.7V82.2c0-30.2 24.6-54.8 54.7-54.8h227c30.2 0 54.7 24.6 54.7 54.8v227c0 30.2-24.6 54.8-54.7 54.8h-227c-30.2 0-54.7-24.6-54.7-54.8v-46.1c0-7.6-6.2-13.8-13.8-13.8-7.6 0-13.7 6.2-13.7 13.8v46.1c0 45.4 36.9 82.2 82.2 82.2h226.9zm0 0"/></svg>