<svg id="Layer_1" xmlns="http://www.w3.org/2000/svg" viewBox="0 0 285.2 80.4"><style/><path fill="#21AA4D" d="M157.8 8.4l-17.9 38.8h-1.8V0h-25.4v80h21.6c5.7 0 10.8-3.3 13.2-8.4l17.9-38.8h1.8V80h25.4V0H171c-5.6 0-10.8 3.3-13.2 8.4M62.4 10.5L51.8 47.2H50L39.4 10.5C37.6 4.3 31.9 0 25.4 0H0v80h25.4V32.7h1.8L41.8 80H60l14.5-47.2h1.8V80h25.4V0H76.3c-6.4 0-12.1 4.3-13.9 10.5M203.5 36.3V80h25.4V54.5h27.3c11.9 0 21.9-7.6 25.7-18.2h-78.4z"/><linearGradient id="SVGID_1_" gradientUnits="userSpaceOnUse" x1="199.877" y1="16.356" x2="283.465" y2="16.356"><stop offset=".01" stop-color="#18a6df"/><stop offset=".237" stop-color="#15a0db"/><stop offset=".613" stop-color="#1191d0"/><stop offset="1" stop-color="#0d7ec3"/></linearGradient><path fill="#1294d2" d="M256.2 0h-56.3c3.4 18.6 19.7 32.7 39.3 32.7h43.7c.4-1.8.5-3.6.5-5.5.1-15-12.1-27.2-27.2-27.2"/></svg>