<svg xmlns="http://www.w3.org/2000/svg" viewBox="0 0 103.2 104.3"><path fill="#0072C6" d="M64.6 22.1v20.4l7.1 4.5c.2.1.6.1.8 0l30.7-20.7c0-2.4-2.3-4.2-3.6-4.2h-35z"/><path fill="#0072C6" d="M64.6 50.1l6.5 4.5c.9.7 2 0 2 0-1.1.7 30.1-20 30.1-20v37.5c0 4.1-2.6 5.8-5.6 5.8h-33V50.1z"/><g fill="#0072C6"><path d="M30.79 40.89c-2.35 0-3.917 1.176-5.484 3.135s-1.568 4.702-1.568 8.228.784 6.268 1.96 8.227c1.175 1.96 3.134 3.134 5.093 3.134 2.35 0 3.917-1.175 5.093-3.134s1.959-4.701 1.959-8.227c0-3.526-.784-6.66-1.96-8.62-1.175-1.959-2.742-2.742-5.092-2.742z"/><path d="M-.16 11.899v79.924l60.726 12.93V.144L-.16 11.899zm40.745 53.283c-2.742 3.526-5.877 5.093-10.186 5.093-3.918 0-7.444-1.567-9.795-5.093-2.35-3.135-3.918-7.444-3.918-12.93 0-5.484 1.176-10.186 3.918-13.32 2.743-3.526 5.877-5.093 10.187-5.093 3.917 0 7.444 1.567 9.794 5.093 2.351 3.134 3.526 7.444 3.526 12.929.392 5.485-.783 9.795-3.526 13.32z"/></g></svg>