<svg xmlns="http://www.w3.org/2000/svg" viewBox="0 1.8 16.6 13.3"><path d="M6.8 6.6c0 .8-.7 1.5-1.5 1.5s-1.5-.7-1.5-1.5S4.4 5 5.3 5c.8.1 1.5.7 1.5 1.6zm-2 0c0 .3.2.5.5.5s.5-.2.5-.5-.2-.6-.5-.6c-.3.1-.5.3-.5.6zM10.6 10.4c0 .8-.7 1.5-1.5 1.5s-1.5-.7-1.5-1.5.7-1.5 1.5-1.5c.8-.1 1.5.6 1.5 1.5zm-2.1 0c0 .3.2.5.5.5s.5-.2.5-.5-.1-.6-.4-.6c-.3 0-.6.3-.6.6zM9.1 5.7l.7.7-4.7 4.7-.7-.7 4.7-4.7z"/><path d="M.1 15.1l.6-1.5-.7-1 .6-1-.6-1 .6-1.1-.6-1 .6-1L0 6.4l.6-1-.6-1 .7-1.1-.6-1.5h16.4v13.3H.1zM1.6 2.8l.2.6-.6 1 .6 1-.6 1 .6 1.1-.6 1 .6 1-.6 1 .6 1-.6 1 .6 1-.2.6h14V2.8h-14z"/><path d="M12.6 10.7h1v1.4h-1zM12.5 4.9h1v4.8h-1z"/></svg>