<svg xmlns="http://www.w3.org/2000/svg" viewBox="0 0 25.3 14.4"><path fill-rule="evenodd" clip-rule="evenodd" d="M12.4 14.4h1.5s.5-.1.7-.3c.2-.2.2-.7.2-.7s0-2 .9-2.3c.9-.3 2.1 2 3.4 2.8 1 .7 1.7.5 1.7.5h3.4s1.8-.1.9-1.5c-.1-.1-.5-1-2.5-2.9-2.1-2-1.8-1.6.7-5 1.6-2.1 2.2-3.3 2-3.9C25.1.6 24 .7 24 .7h-3.8s-.3 0-.5.1-.3.4-.3.4-.6 1.6-1.4 3c-1.7 2.9-2.4 3-2.6 2.8-.6-.4-.5-1.7-.5-2.6 0-2.8.4-3.9-.8-4.2-.6-.1-.9-.2-1.9-.2-1.4 0-2.5 0-3.2.3-.4.2-.8.7-.6.7.3 0 .8.2 1.1.6.5.5.4 1.7.4 1.7s.3 3.3-.5 3.7c-.5.3-1.2-.3-2.7-2.9-.8-1.3-1.4-2.8-1.4-2.8S5.2 1 5 .9C4.8.7 4.4.6 4.4.6H.8S.3.6.1.9c-.2.2 0 .6 0 .6s2.8 6.6 6 10c2.9 3.1 6.3 2.9 6.3 2.9z"/></svg>