<svg xmlns="http://www.w3.org/2000/svg" viewBox="0 0 336 258.9"><path d="M196.6 95.1c-1.4-.6-3-.1-3.8 1.1L151.2 159c-5.1 2.1-9.4 6.2-11.8 11.7-4.9 11.3.2 24.5 11.6 29.4 11.3 4.9 24.5-.2 29.4-11.6 2.4-5.5 2.4-11.4.5-16.6l17.6-73.2c.3-1.5-.5-3-1.9-3.6zm0 0M205.9 46l-.7-.2c-8-2.6-15.2-4.3-21.9-5.2-5.6-.8-11.3-1.1-17.2-1.1-2 0-4 .1-6 .1-5.8.2-11.6 1-17.5 2.2-4.3.9-8 1.9-11.4 3-2.6.8-5 1.7-7.9 2.8-.7.3-1.3.8-1.6 1.4-.3.7-.3 1.4-.1 2.1l5.1 13.8c.3.7.8 1.3 1.5 1.6 1 .5 2.6-.1 2.9-.2 3.8-1.2 6.9-2.1 9.8-2.7 4.3-.9 7.8-1.5 10.9-1.8 2.3-.2 4.8-.4 7.8-.5.8 0 1.6-.1 2.5-.1 2 0 4 .1 6.2.2 3.4.2 7.1.6 11.4 1.4 5.6 1 11.3 2.6 18.5 5.3.3.1.6.2 1 .2s.8-.1 1.2-.3c.7-.3 1.2-.9 1.4-1.6l5.8-16.6c.2-.7.2-1.5-.1-2.1-.3-1-.8-1.5-1.6-1.7zm0 0M96.1 66c-.5-.6-1.2-.9-1.9-1-.8-.1-1.5.2-2.1.6-3.6 3.1-8.4 7.2-12.7 12-4.7 5.2-9 10.8-12.8 16.7-4.6 7.2-8.2 14.5-10.7 21.7-1.1 3-2.4 7-3.5 11.1-.7 2.9-1.3 5.8-1.8 8.2-.1.7 0 1.5.4 2.1.4.6 1.1 1.1 1.8 1.2l10.1 2c.2 0 .4.1.5.1 2.2 0 2.6-1.6 3.1-3.7.3-.9.6-2.1.9-3.2.3-1.1.5-2.1.6-2.3 2-6.9 5-13.8 8.8-20.5 3.4-6.1 7.7-12 13-17.9 4.7-5.2 10.1-9.6 14.2-12.9.6-.5 1-1.1 1.1-1.9.1-.8-.1-1.5-.6-2.1L96.1 66zm0 0M284 168.2l-22.8-2.4c-1.4-.2-2.8.8-3 2.2l-1.2 6.4c-.6 2.8-1.3 5.5-2.1 8.4-.3.9-.5 1.8-.8 2.7-1.4 5.1-5.2 13.5-8.1 18.1-.4.7-.6 1.5-.4 2.2.2.8.7 1.4 1.4 1.8l22 11.5c.4.2.8.3 1.3.3.3 0 .6 0 .9-.1.7-.2 1.3-.7 1.6-1.4l1.9-3.8c3.3-6.5 5.9-13.7 8.2-22 2.1-7.6 3.1-15.1 3.7-20.8.1-.7-.1-1.5-.6-2.1-.6-.5-1.3-.9-2-1zm0 0M255.4 131.7c.6 2.5 1.2 5.1 1.8 8.2.1.7.6 1.4 1.2 1.8.4.3 1 .4 1.5.4.2 0 .4 0 .6-.1l21.3-4.8c.7-.2 1.4-.6 1.8-1.3.4-.6.5-1.4.3-2.1-1.8-7.1-3.6-13-5.7-18.4-2.6-6.6-6-13.2-10.3-20.1-1.8-3-4-6.1-6.8-9.7-2.5-3.3-5.1-6.3-7.7-9-2.2-2.3-5.2-5.3-8.5-8.1-2.3-1.9-4.6-3.8-6.6-5.4-.6-.4-1.3-.7-2.1-.6-.7.1-1.4.5-1.9 1.1l-11.6 14.9c-.9 1.2-.7 2.9.4 3.8 0 0 2.1 1.8 3.1 2.7 2.4 2.1 4.9 4.6 7.5 7.5 3 3.3 5.2 6.1 7 8.7 4.7 6.8 8.2 13.2 10.8 19.8 2 4.3 3.1 7.6 3.9 10.7zm0 0M74.2 205.2c-.8-1.7-1.6-3.3-2.3-4.9-1.3-3.1-2.6-6.5-4-10.9-2.2-7-3.2-14.3-3.9-20.5-.1-.7-.5-1.4-1-1.9-.6-.5-1.3-.7-2.1-.6l-9 1.2c-.7.1-1.4.5-1.9 1.1-.4.6-.6 1.4-.5 2.1l.2 1.2c1.3 8.9 3.1 16.1 5.4 22.5 1.2 3.3 2.7 7.2 4.5 11 1.2 2.5 2.6 5.2 4.4 8.5.4.7 1 1.2 1.7 1.4.3.1.5.1.8.1.5 0 .9-.1 1.4-.4l6.5-3.6c1.3-.7 1.8-2.4 1.1-3.7l-1.3-2.6zm0 0"/><path d="M286.9 50.3C255.1 17.8 212.9 0 168 0S80.9 17.9 49.1 50.3C17.4 82.6 0 125.6 0 171.4c0 28.9 7.2 57.6 20.9 82.8 1.6 2.9 4.6 4.7 7.9 4.7h278.4c3.3 0 6.3-1.8 7.9-4.7 13.7-25.2 20.9-53.8 20.9-82.8 0-45.8-17.4-88.8-49.1-121.1zm14.8 190.5H34.3C23.6 219.4 18 195.5 18 171.4 18 86.8 85.3 18 168 18s150 68.8 150 153.4c0 24.1-5.6 48-16.3 69.4zm0 0"/></svg>