<svg xmlns="http://www.w3.org/2000/svg" viewBox="0 0 108.3 33.2"><path fill="#00589F" d="M38.2 32.7L43.7.6h8.7l-5.5 32.1zM78.8 1.4C77 .7 74.3 0 70.9 0c-8.7 0-14.8 4.4-14.8 10.6 0 4.6 4.4 7.2 7.7 8.7 3.4 1.6 4.6 2.6 4.5 4 0 2.2-2.7 3.1-5.2 3.1-3.5 0-5.4-.5-8.3-1.7l-1.1-.5-1.2 7.2c2 .9 5.8 1.7 9.8 1.7 9.2 0 15.2-4.3 15.3-11 0-3.7-2.3-6.4-7.4-8.7-3.1-1.5-4.9-2.5-4.9-4 0-1.3 1.6-2.8 5-2.8 2.9 0 4.9.6 6.6 1.2l.8.4 1.1-6.8M101.2.6h-6.8c-2.1 0-3.7.6-4.6 2.7l-13 29.5H86l1.8-4.8H99c.3 1.1 1.1 4.8 1.1 4.8h8.1l-7-32.2M90.4 21.3c.7-1.9 3.5-9 3.5-9-.1.1.7-1.9 1.2-3.1l.6 2.8s1.7 7.7 2 9.3h-7.3zM30.8.6l-8.6 21.9-.9-4.5C19.7 12.9 14.7 7.4 9.2 4.6L17 32.7h9.3L40.1.6h-9.3"/><path fill="#F9A51A" d="M14.3.6H.1l-.1.6C11 3.9 18.3 10.3 21.3 18L18.2 3.3c-.5-2.1-2-2.7-3.9-2.7"/></svg>