<svg height="490pt" viewBox="-21 0 490 490.65067" width="490pt" xmlns="http://www.w3.org/2000/svg"><path d="M437.664 255.984v117.332c0 58.883-47.785 106.668-106.668 106.668h-49.918c-22.613 0-44.375-8.96-60.375-24.96L68.813 303.128c-8.32-8.316-8.32-21.973 0-30.293 15.785-15.785 40.746-17.492 58.664-4.05l54.187 40.53V106.652c0-17.707 14.293-32 32-32s32 14.293 32 32v106.664c0-9.386 4.055-17.918 10.668-23.68a31.31 31.31 0 0 1 21.332-8.32c17.492 0 31.574 13.868 32 31.36v21.976c0-9.386 4.055-17.922 10.668-23.683a31.324 31.324 0 0 1 21.332-8.317c17.492 0 31.574 13.864 32 31.36v21.972c0-9.386 4.055-17.921 10.668-23.68a31.31 31.31 0 0 1 21.332-8.32c17.707 0 32 14.293 32 32zm0 0" fill="none"/><path d="M416.332 63.984h-128c-5.89 0-10.668-4.777-10.668-10.668 0-5.886 4.777-10.664 10.668-10.664h128c5.887 0 10.664 4.778 10.664 10.664 0 5.891-4.777 10.668-10.664 10.668zm0 0"/><path d="M373.664 106.652c-2.73 0-5.46-1.047-7.55-3.117-4.16-4.16-4.16-10.922 0-15.082l35.132-35.137-35.113-35.113c-4.16-4.16-4.16-10.922 0-15.082s10.922-4.16 15.082 0l42.668 42.664c4.16 4.16 4.16 10.926 0 15.086l-42.668 42.664a10.709 10.709 0 0 1-7.55 3.117zm0 0M138.996 63.984h-128C5.11 63.984.332 59.207.332 53.316c0-5.886 4.777-10.664 10.664-10.664h128c5.89 0 10.668 4.778 10.668 10.664 0 5.891-4.777 10.668-10.668 10.668zm0 0"/><path d="M53.664 106.652c-2.73 0-5.46-1.047-7.55-3.117L3.444 60.871c-4.16-4.16-4.16-10.926 0-15.086L46.113 3.121c4.16-4.16 10.922-4.16 15.082 0s4.16 10.922 0 15.082L26.078 53.316l35.117 35.118c4.16 4.16 4.16 10.921 0 15.082a10.57 10.57 0 0 1-7.53 3.136zm0 0M330.996 490.652h-49.984c-25.258 0-50.004-10.242-67.883-28.117L61.195 310.617c-12.48-12.48-12.48-32.765 0-45.246 19.457-19.457 50.707-21.676 72.727-5.183l37.074 27.796V106.652c0-23.53 19.137-42.668 42.668-42.668s42.668 19.137 42.668 42.668v69.739a42.304 42.304 0 0 1 21.332-5.739c18.582 0 34.434 11.946 40.277 28.563a42.392 42.392 0 0 1 23.723-7.23c18.582 0 34.434 11.945 40.277 28.566a42.365 42.365 0 0 1 23.723-7.235c23.531 0 42.668 19.137 42.668 42.668v117.332c0 64.684-52.629 117.336-117.336 117.336zM100.598 270.45c-8.875 0-17.707 3.39-24.32 10.004-4.16 4.16-4.16 10.922 0 15.082L228.214 447.45c13.906 13.89 33.152 21.867 52.797 21.867h49.984c52.93 0 96-43.07 96-96V255.984c0-11.777-9.578-21.332-21.332-21.332-11.754 0-21.332 9.555-21.332 21.332v10.668c0 5.887-4.781 10.664-10.668 10.664s-10.668-4.777-10.668-10.664v-32c0-11.777-9.578-21.336-21.332-21.336-11.754 0-21.332 9.559-21.332 21.336v32c0 5.887-4.781 10.664-10.668 10.664s-10.668-4.777-10.668-10.664v-53.336c0-11.773-9.578-21.332-21.332-21.332-11.754 0-21.332 9.559-21.332 21.332v53.336c0 5.887-4.781 10.664-10.668 10.664s-10.668-4.777-10.668-10.664v-160c0-11.777-9.578-21.336-21.332-21.336-11.754 0-21.332 9.559-21.332 21.336v202.664c0 4.032-2.285 7.723-5.89 9.536-3.626 1.793-7.958 1.386-11.157-1l-54.12-40.598c-6.126-4.566-13.356-6.805-20.567-6.805zm0 0"/></svg>